<?xml version="1.0" encoding="UTF-8" standalone="no"?>
<!DOCTYPE svg PUBLIC "-//W3C//DTD SVG 1.1//EN" "http://www.w3.org/Graphics/SVG/1.1/DTD/svg11.dtd">
<svg xmlns="http://www.w3.org/2000/svg" version="1.1" viewBox="0 0 428 428" width="428.0pt" height="428.0pt">
<path d="M 0.00 0.00 L 428.00 0.00 L 428.00 428.00 L 0.00 428.00 L 0.00 0.00 Z" fill="#ffffff" />
<path d="M 257.96 28.48 C 260.93 28.84 263.20 33.65 266.26 32.49 C 270.20 31.77 273.89 30.68 277.94 30.65 C 284.78 30.63 292.20 30.32 298.88 31.77 C 302.87 33.21 304.83 36.63 307.71 39.47 C 312.05 40.65 316.56 39.82 320.76 41.03 C 325.32 42.35 329.92 43.89 334.12 46.11 C 338.79 48.89 342.71 52.72 343.74 58.28 C 350.92 60.68 356.75 64.59 362.04 69.97 C 364.83 72.86 368.33 75.72 370.23 79.29 C 371.14 82.20 370.60 85.71 370.55 88.75 C 377.48 94.04 383.03 100.67 386.43 108.74 C 389.30 114.22 389.77 120.70 386.04 125.90 C 388.45 129.43 391.23 133.24 392.51 137.32 C 395.02 145.17 396.16 153.23 395.25 161.45 C 394.07 164.00 392.18 165.67 390.25 167.63 C 393.59 175.34 392.68 182.87 392.73 191.01 C 392.68 196.35 392.06 201.87 390.38 206.96 C 388.83 210.32 384.93 212.59 382.73 215.58 C 382.29 220.54 382.99 225.34 381.71 230.28 C 380.10 237.02 378.11 243.88 375.38 250.25 C 373.38 254.93 369.59 257.72 365.51 260.46 C 363.69 261.46 363.64 264.43 362.99 266.24 C 360.69 275.80 355.79 283.39 350.85 291.72 C 348.59 295.41 345.66 298.87 342.19 301.47 C 340.43 302.89 338.07 302.52 335.94 302.74 C 333.30 308.77 330.03 314.66 325.83 319.74 C 320.57 326.34 314.88 332.78 308.64 338.48 C 305.62 341.26 302.51 340.31 298.77 340.41 C 292.28 348.59 284.66 355.95 276.38 362.31 C 272.92 364.99 269.43 368.45 265.40 370.21 C 262.08 370.94 258.91 369.80 255.69 369.12 C 252.25 372.20 248.67 375.33 244.84 377.91 C 238.42 382.25 231.30 385.36 224.40 389.06 C 219.37 391.84 214.02 390.90 209.32 387.95 C 204.43 390.50 199.46 393.12 194.16 394.67 C 189.30 396.09 184.40 397.32 179.53 398.68 C 176.24 399.66 172.59 399.88 169.22 399.26 C 166.79 398.04 164.97 395.99 163.01 394.15 C 158.02 395.32 153.22 396.57 148.04 396.45 C 141.41 396.39 134.73 396.68 128.13 396.33 C 124.31 394.51 121.56 390.19 118.51 387.56 C 113.91 386.66 109.57 386.93 105.12 385.48 C 100.52 384.00 95.78 382.84 91.27 381.11 C 86.66 378.74 82.71 374.01 83.38 368.54 C 79.24 366.95 75.35 365.01 71.80 362.32 C 66.38 358.25 61.09 355.05 56.76 349.72 C 55.58 346.31 56.45 342.01 56.41 338.44 C 55.14 336.54 53.19 335.04 51.60 333.41 C 47.43 329.44 44.92 324.80 41.65 320.14 C 39.95 317.47 38.02 315.41 38.21 312.01 C 37.72 307.78 39.55 304.36 40.12 300.32 C 39.03 297.09 36.90 294.28 35.72 291.05 C 34.03 286.44 32.91 281.61 31.72 276.84 C 30.82 271.45 30.70 265.32 33.16 260.29 C 34.16 259.33 35.59 258.81 36.80 258.13 C 36.11 255.44 35.41 252.81 35.39 250.01 C 35.12 241.65 35.37 233.28 35.40 224.92 C 35.35 221.23 36.82 218.35 37.77 214.81 C 40.21 214.10 42.98 213.44 45.15 212.09 C 45.60 205.82 44.72 199.92 46.41 193.65 C 48.02 187.26 49.74 180.84 51.80 174.58 C 52.60 172.73 53.25 169.86 55.09 168.80 C 57.81 167.66 60.66 166.79 63.54 166.17 C 64.56 161.14 65.60 156.18 67.49 151.39 C 69.86 144.89 73.34 139.36 76.50 133.24 C 77.76 130.93 78.97 128.44 80.66 126.41 C 84.20 124.68 88.13 123.52 92.09 123.34 C 94.79 114.03 100.13 106.55 106.35 99.29 C 109.00 96.31 111.25 92.79 114.26 90.18 C 117.79 88.08 122.79 87.51 126.62 86.32 C 130.21 83.43 132.47 79.05 135.99 75.99 C 141.77 70.77 148.01 66.02 154.05 61.08 C 159.38 57.11 164.83 57.57 170.92 56.41 C 173.07 55.23 174.97 53.54 176.96 52.12 C 182.88 47.89 189.33 44.29 195.73 40.85 C 200.06 38.78 205.12 36.96 209.98 37.31 C 212.28 37.32 214.35 38.32 216.59 38.52 C 222.23 35.86 227.90 33.51 233.98 32.00 C 241.98 29.78 249.53 27.79 257.96 28.48 Z" fill="#030303" />
<path d="M 241.00 33.92 C 238.75 40.58 236.38 46.78 236.49 53.95 C 236.21 60.80 237.71 67.43 237.59 74.27 C 237.58 80.65 238.20 87.37 237.13 93.68 C 234.90 102.68 229.89 111.45 226.40 120.08 C 222.80 128.31 220.12 136.84 217.41 145.40 C 219.97 145.44 222.53 145.45 225.10 145.45 C 229.64 134.55 235.60 124.09 242.17 114.29 C 244.78 110.38 247.17 106.45 248.56 101.93 C 251.38 93.54 250.48 83.67 249.65 74.99 C 249.51 66.30 249.18 57.60 249.19 48.91 C 248.95 43.35 253.35 37.81 258.99 37.28 C 266.61 36.06 274.54 36.55 282.24 36.23 C 278.34 42.29 274.82 48.41 273.11 55.48 C 270.20 66.95 268.86 78.87 265.64 90.25 C 262.89 99.72 257.43 106.86 251.70 114.64 C 245.26 123.44 239.36 132.62 233.98 142.10 C 233.06 143.70 232.53 145.41 232.09 147.20 C 234.25 147.20 237.04 147.97 239.07 147.20 C 240.73 145.52 242.04 143.44 243.46 141.56 C 249.84 132.95 257.07 125.19 264.60 117.59 C 270.44 111.75 273.88 104.34 275.78 96.38 C 278.20 86.28 280.30 76.09 282.41 65.93 C 283.95 58.96 284.13 51.86 289.93 46.90 C 292.71 44.06 296.02 44.05 299.69 44.81 C 306.03 46.31 312.43 47.67 318.71 49.41 C 312.14 55.47 307.00 62.86 303.25 70.95 C 300.59 76.69 298.19 82.53 295.55 88.28 C 292.29 95.56 288.89 103.51 283.88 109.75 C 276.08 119.04 266.30 126.38 258.15 135.15 C 253.49 140.40 248.59 145.38 244.33 150.97 C 245.93 152.12 247.44 153.61 249.22 154.46 C 250.44 154.77 251.56 153.22 252.41 152.55 C 257.57 147.33 263.50 142.72 269.34 138.28 C 275.60 133.54 283.37 129.38 288.45 123.45 C 292.01 119.28 294.86 114.38 297.21 109.44 C 302.97 97.44 308.51 85.33 313.91 73.17 C 315.49 69.72 317.26 66.57 320.34 64.24 C 323.29 61.52 328.61 61.59 331.79 63.90 C 336.86 67.09 341.92 70.27 347.05 73.35 C 342.37 76.99 337.54 80.08 333.54 84.53 C 327.76 91.01 322.74 98.90 317.66 105.79 C 312.95 112.14 308.91 118.64 303.15 124.15 C 295.78 131.65 286.57 135.98 277.71 141.87 C 269.62 147.24 261.24 152.73 254.28 159.53 C 255.43 161.31 256.62 163.06 257.84 164.80 C 264.51 160.93 271.00 156.95 278.05 153.78 C 285.85 149.98 293.18 148.16 300.13 143.03 C 305.76 139.08 309.42 133.82 313.58 128.45 C 320.61 119.20 327.32 109.72 334.24 100.39 C 337.24 96.06 339.84 91.74 344.85 89.47 C 347.45 88.28 350.73 87.63 352.68 90.26 C 357.37 95.45 361.40 101.24 365.85 106.64 C 360.99 108.72 356.20 110.73 351.86 113.79 C 344.55 118.70 339.31 125.03 332.73 130.76 C 327.33 135.42 322.71 140.74 316.94 144.99 C 311.37 149.38 305.01 152.39 298.32 154.67 C 285.22 159.17 272.54 163.86 260.54 170.88 C 261.16 173.15 261.61 175.43 261.96 177.76 C 268.46 175.74 274.76 173.32 281.47 172.01 C 291.29 169.43 299.97 170.20 308.91 164.74 C 318.97 158.42 327.35 149.04 336.32 141.32 C 341.97 136.41 347.01 130.68 352.87 126.06 C 355.48 124.10 358.53 122.13 361.95 122.47 C 364.71 122.24 366.19 125.16 367.02 127.36 C 369.25 133.63 371.33 139.97 373.24 146.35 C 369.88 147.01 366.56 147.63 363.29 148.66 C 355.49 150.91 348.10 156.13 341.22 160.39 C 333.99 164.79 326.91 169.72 319.30 173.43 C 312.21 176.89 304.54 178.27 296.70 178.52 C 286.03 179.51 273.83 180.79 263.79 184.74 C 262.46 187.28 262.68 189.74 262.52 192.51 C 268.25 191.01 274.48 191.63 280.53 191.50 C 286.50 191.30 292.16 192.63 298.06 193.25 C 305.45 192.86 312.28 190.23 318.56 186.41 C 330.52 179.41 342.28 172.09 354.07 164.81 C 357.81 162.58 361.27 160.67 365.80 161.78 C 368.90 163.66 368.96 166.66 369.30 169.92 C 369.47 176.57 369.40 183.23 369.56 189.88 C 365.59 189.73 361.29 189.25 357.38 189.95 C 348.20 191.35 339.09 195.50 330.28 198.53 C 323.29 200.88 315.51 204.18 308.12 204.50 C 301.33 204.87 295.54 202.98 288.85 201.84 C 279.89 200.27 270.99 199.22 261.89 199.56 C 261.09 202.45 260.10 205.27 259.26 208.15 C 266.21 208.38 272.90 210.79 279.34 213.28 C 284.82 215.45 291.05 219.43 297.03 219.49 C 302.01 219.64 307.18 217.84 311.91 216.42 C 324.16 212.47 336.27 208.11 348.41 203.84 C 352.26 203.07 358.10 202.08 360.27 206.31 C 360.76 208.40 360.35 210.32 359.85 212.36 C 358.00 219.92 356.45 227.56 354.45 235.08 C 349.56 232.68 344.48 231.00 339.02 230.70 C 324.85 231.51 312.18 234.56 298.10 233.38 C 291.20 232.16 284.49 227.17 278.32 223.97 C 271.42 220.23 264.23 217.35 256.69 215.15 C 255.21 217.73 253.85 220.36 252.46 222.98 C 259.33 226.70 265.72 231.20 271.13 236.88 C 275.58 241.41 280.06 245.71 286.71 246.44 C 292.78 246.70 298.97 246.69 304.98 245.78 C 312.92 245.26 320.88 244.54 328.77 243.59 C 331.67 243.46 334.78 243.16 337.64 243.76 C 339.12 244.60 340.46 245.67 341.44 247.08 C 341.89 249.56 341.74 251.98 340.61 254.26 C 336.96 262.12 333.10 269.88 329.31 277.68 C 325.74 274.05 322.03 270.87 317.09 269.32 C 305.96 265.89 293.63 265.63 282.69 261.67 C 276.61 259.38 272.82 254.91 268.92 249.97 C 263.41 242.87 256.91 236.65 249.88 231.08 C 249.03 230.36 247.99 230.19 247.08 230.92 C 245.54 232.34 244.04 234.03 242.81 235.73 C 242.12 236.82 242.72 237.59 243.40 238.46 C 246.83 242.63 250.01 246.93 252.57 251.70 C 255.33 256.30 256.87 261.74 260.09 265.98 C 263.43 270.28 268.27 271.92 273.34 273.26 C 284.07 275.81 294.87 277.93 305.73 279.85 C 308.73 280.37 311.20 281.85 313.70 283.51 C 313.72 285.94 313.95 288.54 313.51 290.94 C 312.77 292.84 311.40 294.56 310.22 296.21 C 305.40 302.61 300.50 308.94 295.84 315.46 C 293.58 311.23 291.72 307.22 288.00 304.02 C 283.01 299.75 276.39 296.87 270.70 293.56 C 264.63 290.04 258.66 287.25 254.66 281.18 C 250.93 275.22 249.15 267.83 246.28 261.37 C 243.67 254.85 240.21 248.76 236.22 242.99 C 233.95 244.85 231.66 246.68 229.38 248.53 C 232.05 256.04 234.25 263.64 235.34 271.55 C 235.85 277.41 236.36 284.21 240.10 289.02 C 244.17 294.22 251.12 297.60 256.67 301.09 C 263.28 305.27 270.38 308.71 276.92 312.96 C 280.58 315.27 279.77 319.15 279.42 322.86 C 277.32 326.85 273.06 329.84 269.87 332.98 C 265.03 337.07 260.48 341.46 255.74 345.65 C 255.14 339.76 254.08 334.16 250.62 329.22 C 245.10 321.25 237.67 314.62 232.20 306.58 C 230.51 304.06 229.28 301.26 228.50 298.33 C 226.80 292.66 227.89 286.88 226.78 281.01 C 226.41 271.55 225.06 262.27 222.27 253.20 C 219.89 254.74 216.17 255.98 214.79 258.55 C 214.48 266.47 215.02 274.51 214.21 282.44 C 213.50 287.03 212.26 291.33 212.49 296.03 C 212.26 302.36 215.63 307.86 219.35 312.69 C 225.61 320.77 232.23 328.54 238.86 336.31 C 241.46 339.08 240.91 343.42 240.47 346.89 C 239.47 349.61 236.53 351.80 234.15 353.30 C 227.16 357.49 220.03 361.47 213.15 365.85 C 213.30 360.39 214.06 354.21 212.56 348.93 C 209.81 338.34 204.39 328.43 201.67 317.86 C 200.98 311.28 200.82 304.29 202.47 297.83 C 205.23 285.30 207.64 273.21 207.45 260.28 C 204.86 261.05 202.27 261.80 199.69 262.57 C 197.39 273.03 194.61 283.21 190.56 293.14 C 188.37 298.61 186.22 303.99 186.46 310.01 C 186.41 313.87 187.58 317.23 188.70 320.86 C 191.99 330.97 195.80 340.93 199.58 350.86 C 201.03 354.73 201.21 359.14 198.86 362.70 C 196.53 366.79 192.06 367.89 187.93 369.31 C 181.65 371.24 175.40 373.84 168.99 375.00 C 170.27 370.60 171.98 366.72 172.71 362.19 C 173.90 356.45 173.54 350.85 172.76 345.09 C 172.30 338.41 172.34 331.68 172.21 324.98 C 172.27 321.08 172.11 316.70 173.38 312.97 C 176.54 302.98 181.64 294.39 185.33 284.56 C 188.11 277.71 190.21 270.65 192.48 263.62 C 189.93 263.57 187.37 263.57 184.81 263.56 C 180.29 273.96 174.85 283.92 168.53 293.34 C 165.47 297.88 162.71 302.39 161.07 307.66 C 158.65 314.85 159.70 323.42 159.66 331.03 C 160.83 340.31 160.52 349.70 160.78 359.09 C 160.99 362.87 159.53 366.22 156.98 368.94 C 154.15 371.75 150.19 371.94 146.43 372.35 C 140.04 372.63 133.64 372.68 127.24 372.83 C 131.49 367.13 134.86 360.98 136.61 354.06 C 139.63 342.38 141.00 330.24 144.29 318.63 C 147.31 308.32 153.88 300.50 159.97 291.86 C 166.77 282.63 172.73 272.86 178.11 262.74 C 175.90 262.24 173.30 261.11 171.04 261.57 C 165.94 267.63 161.61 274.31 156.03 280.01 C 147.72 288.95 139.01 295.81 135.34 308.02 C 131.21 322.75 128.67 338.00 125.37 352.94 C 124.35 357.66 121.24 362.06 116.86 364.19 C 114.35 365.08 111.16 364.46 108.62 363.88 C 102.82 362.44 96.96 361.24 91.18 359.72 C 95.20 355.54 99.19 351.11 102.30 346.20 C 106.79 338.60 110.15 330.06 113.80 322.01 C 117.50 313.70 121.39 304.37 127.51 297.53 C 135.84 288.51 145.31 280.70 153.63 271.63 C 157.25 267.66 161.37 263.85 164.39 259.41 C 165.69 256.73 161.62 255.50 160.05 254.14 C 153.28 260.80 145.95 266.90 138.23 272.43 C 133.06 276.18 127.47 279.39 122.97 283.97 C 118.64 288.17 115.60 293.47 113.00 298.85 C 106.92 311.22 101.24 323.79 95.71 336.41 C 93.93 340.38 90.86 344.54 86.85 346.44 C 84.04 346.98 81.25 347.16 78.76 345.50 C 73.36 342.28 67.95 338.94 62.81 335.31 C 67.45 332.29 72.07 328.94 75.92 324.94 C 81.75 318.46 86.18 311.48 91.28 304.53 C 96.94 296.84 101.64 289.30 108.84 282.84 C 114.36 277.75 120.49 274.59 126.74 270.55 C 136.53 264.56 145.86 257.81 154.83 250.66 C 156.37 249.44 154.89 247.93 154.19 246.72 C 153.22 245.40 152.60 243.84 150.68 244.84 C 141.27 250.97 131.21 255.92 120.78 260.05 C 113.18 263.03 106.34 267.73 101.28 274.19 C 91.16 286.88 81.77 300.22 72.29 313.39 C 69.58 317.02 65.73 320.35 60.99 320.54 C 58.54 320.83 57.09 318.87 55.64 317.24 C 51.73 312.23 47.78 307.22 44.05 302.08 C 53.74 298.98 61.88 293.13 69.01 286.01 C 74.80 280.09 81.13 274.78 87.04 268.99 C 93.44 262.96 100.67 258.14 109.01 255.22 C 122.77 250.40 136.26 245.68 148.95 238.35 C 148.57 236.10 148.08 233.91 147.48 231.71 C 140.34 233.75 133.36 236.18 126.04 237.58 C 118.89 239.26 112.29 239.16 105.46 242.14 C 95.61 246.24 87.28 255.38 79.35 262.44 C 72.01 268.70 65.38 275.70 58.15 282.08 C 55.34 284.33 51.76 286.93 47.98 286.54 C 45.22 286.82 43.85 283.95 42.98 281.80 C 40.66 275.48 38.70 269.02 36.56 262.64 C 43.01 261.49 49.24 259.94 55.04 256.81 C 66.74 250.37 77.60 242.33 89.42 236.06 C 95.76 232.80 102.71 231.14 109.80 230.65 C 122.29 229.97 134.60 228.16 146.54 224.35 C 146.61 221.99 146.67 219.63 146.74 217.27 C 139.14 217.46 131.50 217.72 123.90 217.37 C 117.51 216.58 111.65 215.49 105.17 216.75 C 99.15 218.06 94.24 220.94 89.00 223.99 C 78.06 230.38 67.35 237.07 56.57 243.74 C 52.86 246.08 49.37 248.17 44.76 247.39 C 41.44 246.11 40.81 243.25 40.63 240.04 C 40.49 233.08 40.56 226.10 40.36 219.14 C 45.93 219.53 51.29 219.75 56.73 218.21 C 68.35 215.14 79.43 210.10 90.93 206.58 C 97.67 204.34 104.76 203.75 111.72 205.32 C 123.58 207.89 135.46 209.73 147.63 209.48 C 148.61 206.87 149.52 204.24 150.60 201.66 C 144.27 200.12 138.01 198.77 131.93 196.36 C 125.93 194.11 121.21 190.85 114.87 189.75 C 110.41 189.02 105.42 190.44 101.12 191.66 C 88.13 195.76 75.27 200.30 62.44 204.88 C 60.11 205.63 57.56 206.69 55.10 206.36 C 52.87 205.92 51.07 204.58 49.67 202.82 C 48.99 199.44 50.14 196.51 50.80 193.23 C 52.32 186.77 53.60 180.35 55.44 173.99 C 61.61 176.63 68.06 179.28 74.91 177.96 C 82.24 177.28 89.55 176.44 96.87 175.61 C 103.17 175.49 110.70 174.49 116.56 177.01 C 121.34 178.84 125.84 181.89 130.33 184.37 C 137.52 188.48 145.22 191.51 153.16 193.84 C 154.61 191.26 156.03 188.66 157.46 186.07 C 148.93 181.75 141.86 175.60 135.18 168.84 C 131.42 164.92 126.30 162.54 120.84 162.47 C 109.81 162.22 98.73 164.00 87.72 164.66 C 82.97 165.38 77.85 165.91 73.03 165.44 C 70.94 165.00 68.19 163.11 68.35 160.70 C 67.82 156.46 69.83 153.53 71.52 149.88 C 74.61 143.75 77.31 137.45 80.51 131.38 C 83.12 133.78 85.60 136.24 88.75 137.93 C 91.93 139.65 95.66 140.61 99.18 141.34 C 106.42 142.73 113.79 143.79 120.96 145.45 C 124.91 146.39 128.61 147.44 131.93 149.88 C 137.74 153.96 141.56 160.48 146.49 165.52 C 150.83 169.92 155.13 174.26 160.13 177.95 C 160.98 178.65 162.01 178.81 162.90 178.07 C 164.69 176.24 166.14 174.05 167.71 172.03 C 160.79 164.58 156.13 155.84 151.97 146.65 C 149.25 140.59 143.83 137.65 137.64 136.10 C 126.69 133.47 115.63 131.21 104.53 129.27 C 101.59 128.67 98.89 128.10 96.70 125.88 C 95.89 122.56 95.56 117.94 97.94 115.16 C 103.24 107.86 108.82 100.76 114.09 93.44 C 116.42 98.44 118.97 103.04 123.56 106.32 C 131.86 112.19 141.64 116.02 149.86 122.02 C 154.89 125.82 157.40 131.11 159.44 136.90 C 163.11 147.20 167.20 157.08 173.65 166.00 C 175.44 164.61 177.27 163.25 178.98 161.76 C 179.75 161.00 180.68 160.47 180.36 159.23 C 178.77 154.98 177.01 150.86 176.13 146.37 C 174.53 140.09 174.33 133.65 173.06 127.33 C 171.91 122.05 168.72 117.84 164.26 114.88 C 155.02 108.68 145.05 103.24 135.41 97.70 C 132.67 96.11 130.38 94.06 129.62 90.85 C 129.24 87.13 131.23 84.24 133.79 81.79 C 140.41 75.55 147.23 69.41 154.27 63.65 C 154.69 68.67 155.57 73.58 158.12 78.00 C 160.99 82.97 165.52 87.35 169.18 91.85 C 173.75 97.33 178.84 102.46 180.97 109.44 C 183.39 116.27 181.97 122.80 183.27 129.90 C 183.54 138.70 185.03 147.37 187.61 155.77 C 189.85 154.43 192.53 153.35 194.43 151.54 C 195.61 150.27 195.20 148.71 195.30 147.10 C 195.17 140.82 195.22 134.54 195.51 128.26 C 195.80 123.26 197.64 118.00 197.44 112.97 C 197.36 107.52 195.03 102.37 191.78 98.09 C 185.16 89.43 178.14 81.10 171.09 72.79 C 168.76 70.18 169.10 67.18 169.19 63.92 C 169.17 60.45 172.51 57.79 175.17 56.09 C 182.32 51.73 189.65 47.65 196.76 43.22 C 196.68 49.71 195.75 55.56 197.75 61.84 C 200.72 71.53 205.35 80.76 208.11 90.53 C 208.93 94.25 208.70 98.26 208.71 102.05 C 208.75 107.48 206.94 112.13 206.09 117.54 C 203.87 127.86 202.23 138.13 202.54 148.73 C 205.12 147.97 207.69 147.20 210.25 146.41 C 212.24 135.95 215.31 125.68 219.31 115.82 C 221.18 111.17 223.02 106.03 223.42 101.00 C 223.78 96.54 222.42 92.41 221.12 88.19 C 218.37 79.82 215.42 71.51 212.25 63.28 C 210.81 59.48 209.06 56.24 209.32 52.02 C 209.21 47.25 212.47 43.14 216.87 41.56 C 223.02 39.26 229.35 37.36 235.58 35.30 C 237.37 34.78 239.18 34.35 241.00 33.92 Z" fill="#ffffff" />
<path d="M 205.81 188.32 C 209.62 186.84 213.65 188.02 216.96 190.11 C 220.03 192.41 221.80 197.08 221.41 200.84 C 219.84 211.46 210.91 220.58 200.05 221.39 C 196.75 220.99 193.09 219.79 191.01 217.03 C 187.76 212.96 187.84 207.17 190.00 202.61 C 192.90 195.77 198.60 190.36 205.81 188.32 Z" fill="#030303" />
</svg>