<?xml version="1.0" encoding="UTF-8" standalone="no"?>
<!DOCTYPE svg PUBLIC "-//W3C//DTD SVG 1.1//EN" "http://www.w3.org/Graphics/SVG/1.1/DTD/svg11.dtd">
<svg xmlns="http://www.w3.org/2000/svg" version="1.1" viewBox="0 0 1181 403" width="1181.0pt" height="403.0pt">
<path d="M 0.00 0.00 L 1181.00 0.00 L 1181.00 403.00 L 0.00 403.00 L 0.00 0.00 Z" fill="#ffffff" />
<path d="M 282.07 18.19 C 282.92 18.27 283.77 18.35 284.61 18.43 C 285.03 19.08 285.45 19.74 285.87 20.39 C 288.44 20.81 290.16 20.42 292.59 19.56 C 304.64 16.33 317.63 15.81 330.03 16.57 C 332.65 16.69 334.32 18.18 336.26 19.70 C 337.10 20.96 337.97 22.21 338.83 23.46 C 341.90 23.41 344.94 23.04 348.00 22.84 C 351.32 23.20 354.69 23.43 357.96 24.14 C 363.39 24.81 369.06 26.09 374.25 27.79 C 378.65 29.32 379.34 32.98 382.36 36.02 C 382.40 36.77 382.44 37.53 382.48 38.29 C 387.13 38.91 392.20 39.65 396.44 41.75 C 400.81 43.80 405.03 46.26 408.95 49.09 C 412.24 51.45 413.86 54.78 416.49 57.72 C 416.56 59.64 416.58 61.55 416.54 63.47 C 419.97 65.35 423.30 67.10 426.07 69.93 C 427.74 71.47 429.19 73.55 431.12 74.72 C 433.93 75.48 437.12 74.97 440.01 75.12 C 442.51 75.03 445.04 76.60 447.06 77.93 C 448.01 79.55 448.91 81.32 449.55 83.09 C 449.88 85.44 449.40 87.68 448.59 89.88 C 446.89 94.64 445.39 99.47 443.62 104.20 C 444.91 106.93 446.91 109.16 448.28 111.84 C 449.13 114.26 450.19 116.58 451.32 118.87 C 451.45 119.62 451.58 120.36 451.70 121.10 C 452.27 122.69 452.79 124.29 453.36 125.88 C 453.65 131.47 454.66 137.45 449.16 140.89 C 449.71 142.62 450.44 144.27 451.25 145.90 C 452.09 148.15 452.90 150.40 453.70 152.67 C 458.13 152.79 462.56 152.75 467.00 152.76 C 470.05 152.74 473.57 152.63 476.41 151.40 C 479.37 149.39 480.83 146.25 481.95 142.96 C 488.49 123.60 495.05 104.24 501.59 84.88 C 502.46 82.50 503.43 79.99 504.91 77.92 C 506.96 76.60 509.48 75.01 511.99 75.07 C 521.32 75.00 530.67 75.01 540.00 74.98 C 543.18 74.70 545.85 76.81 548.42 78.37 C 551.26 77.03 553.76 74.99 556.99 75.17 C 585.99 75.19 615.01 75.11 644.00 75.21 C 652.46 75.22 660.48 77.71 667.31 82.69 C 670.12 84.87 671.81 87.77 673.35 90.90 C 674.54 86.84 676.09 82.14 678.99 78.98 C 681.79 76.90 685.39 74.84 689.00 75.15 C 717.99 75.19 747.01 75.14 776.00 75.17 C 781.34 75.31 787.15 75.53 791.95 78.07 C 794.56 79.39 797.30 80.54 799.42 82.58 C 801.62 84.47 802.65 87.39 804.17 89.96 C 805.52 86.08 806.73 81.57 809.09 78.18 C 811.23 76.47 814.16 74.88 817.00 75.09 C 826.68 75.21 836.40 74.99 846.08 75.19 C 848.57 76.02 851.37 77.05 852.62 79.53 C 854.99 76.84 859.39 74.89 863.00 75.11 C 878.00 75.17 893.00 75.17 908.00 75.16 C 911.66 74.89 915.18 76.86 918.05 78.94 C 920.26 81.81 921.68 85.41 922.23 88.98 C 925.33 105.98 928.69 122.93 931.74 139.94 C 937.41 124.05 942.59 107.96 948.09 92.01 C 949.75 87.40 951.06 81.91 953.87 77.87 C 955.92 76.54 958.46 74.96 960.99 75.06 C 969.33 75.00 977.67 75.01 986.00 74.98 C 989.10 74.72 992.25 76.79 994.54 78.70 C 996.71 77.55 998.88 76.18 1001.22 75.41 C 1004.09 74.96 1007.10 75.20 1010.00 75.16 C 1045.98 75.16 1082.03 75.18 1118.01 75.15 C 1122.00 75.13 1126.91 77.58 1128.39 81.50 C 1130.45 84.79 1129.86 89.03 1128.66 92.52 C 1126.08 100.01 1123.59 107.52 1121.04 115.02 C 1120.09 117.49 1119.09 120.29 1117.33 122.29 C 1114.60 124.15 1111.35 125.36 1108.22 126.37 C 1099.96 129.03 1091.71 131.80 1083.46 134.50 C 1081.36 135.06 1078.47 135.55 1076.55 134.29 C 1075.20 133.63 1073.83 133.01 1072.45 132.43 C 1070.33 139.30 1068.41 146.54 1064.83 152.82 C 1074.95 152.70 1085.08 152.76 1095.19 152.79 C 1096.91 153.74 1098.73 154.55 1100.37 155.62 C 1101.44 157.29 1102.26 159.12 1103.27 160.83 C 1103.24 162.81 1103.30 164.72 1102.59 166.61 C 1100.24 173.36 1097.91 180.11 1095.64 186.89 C 1094.70 189.64 1093.63 192.53 1092.00 194.95 C 1089.76 196.56 1086.85 198.26 1084.00 198.07 C 1045.67 198.02 1007.32 198.05 969.00 198.06 C 967.21 198.06 965.59 197.85 964.01 196.98 C 962.06 195.94 959.68 195.11 959.27 192.65 C 956.35 196.08 951.54 198.40 947.00 198.07 C 932.67 198.02 918.33 198.07 904.00 198.05 C 900.36 198.21 896.68 196.31 893.96 194.04 C 889.39 188.18 889.34 181.84 887.67 174.88 C 884.66 160.97 882.11 146.91 878.82 133.07 C 872.84 150.91 866.68 168.69 860.67 186.52 C 859.72 189.35 858.61 192.32 856.97 194.82 C 854.83 196.54 851.84 198.21 849.00 198.02 C 840.66 197.97 832.32 198.03 823.98 198.00 C 821.39 198.07 818.85 196.07 816.53 195.03 C 814.87 196.01 813.19 196.95 811.52 197.92 C 801.35 198.09 791.16 197.97 780.99 198.00 C 778.37 198.13 775.73 196.14 773.52 194.90 C 772.79 193.00 772.50 191.18 770.72 189.93 C 767.42 191.54 764.35 193.55 760.91 194.89 C 754.46 197.62 747.92 198.00 741.00 198.06 C 726.00 198.05 711.00 198.05 696.00 198.05 C 691.60 197.91 687.72 198.84 683.75 196.40 C 682.28 197.02 680.65 198.11 679.03 198.05 C 670.02 198.11 661.01 198.00 652.00 198.09 C 647.47 198.28 642.73 196.12 641.32 191.52 C 640.04 189.07 640.58 186.61 641.40 184.12 C 644.59 174.88 647.72 165.61 650.91 156.38 C 642.06 163.13 631.29 166.62 620.20 167.01 C 622.91 172.91 625.70 178.78 628.35 184.71 C 629.63 188.64 628.23 191.86 626.10 195.11 C 623.71 196.75 621.00 198.30 618.00 198.07 C 607.66 198.04 597.33 198.05 587.00 198.07 C 584.40 198.29 581.78 196.64 579.63 195.33 C 578.13 193.83 577.35 191.52 576.44 189.62 C 572.99 181.07 569.78 172.42 566.31 163.87 C 563.33 172.16 560.67 180.57 557.76 188.88 C 556.86 191.06 555.95 193.55 554.35 195.32 C 552.21 196.62 549.59 198.29 547.00 198.07 C 538.00 198.06 529.00 198.04 520.00 198.08 C 517.12 198.31 514.21 196.68 511.92 195.09 C 510.82 192.99 509.04 190.44 509.35 187.98 C 509.57 184.93 511.07 181.94 511.95 179.02 C 509.47 181.53 507.09 184.23 504.10 186.12 C 496.43 191.20 487.65 195.25 478.53 196.79 C 468.21 198.68 456.79 197.59 446.68 198.22 C 446.46 200.71 446.85 203.43 445.20 205.50 C 446.79 205.84 448.36 206.16 450.00 206.14 C 477.34 206.05 504.67 206.20 532.01 206.15 C 535.08 205.98 537.47 207.44 539.97 209.03 C 543.60 212.60 544.50 217.27 543.17 222.15 C 549.30 216.34 557.68 212.38 565.48 209.37 C 573.10 206.77 581.01 206.22 589.00 206.16 C 613.67 206.16 638.33 206.17 663.00 206.16 C 665.59 206.19 668.28 205.97 670.84 206.39 C 672.78 207.11 674.61 208.18 676.46 209.09 C 678.83 207.78 681.15 205.87 683.99 206.06 C 692.99 206.00 702.00 206.02 711.00 205.97 C 712.57 205.98 714.04 205.89 715.48 206.64 C 716.74 207.32 718.07 207.94 719.27 208.73 C 720.07 209.93 720.67 211.26 721.36 212.52 C 722.50 214.58 722.09 217.34 721.40 219.49 C 718.52 227.98 715.56 236.45 712.79 244.98 C 729.57 245.03 746.34 244.97 763.12 245.01 C 766.47 235.36 769.69 225.67 773.00 216.00 C 773.96 213.52 774.98 210.78 776.71 208.74 C 778.83 207.41 781.41 205.80 784.00 206.04 C 794.16 206.09 804.33 205.87 814.49 206.09 C 816.06 207.01 817.72 207.76 819.24 208.76 C 820.23 210.29 821.00 211.96 821.95 213.52 C 821.95 215.27 822.13 216.87 821.55 218.56 C 810.10 252.05 798.69 285.63 787.30 319.15 C 786.45 321.51 785.48 323.96 784.05 326.03 C 781.77 327.59 778.85 329.30 776.00 329.08 C 767.00 329.05 758.00 329.05 749.00 329.08 C 746.14 329.30 743.20 327.66 740.93 326.06 C 739.99 324.43 739.11 322.68 738.47 320.91 C 737.99 317.65 739.29 315.14 740.27 312.14 C 742.95 304.41 745.62 296.68 748.19 288.92 C 733.46 288.90 718.73 288.83 704.00 288.88 C 701.80 288.78 699.92 289.29 698.05 287.85 C 694.87 297.63 691.41 307.33 688.17 317.10 C 687.13 320.16 685.99 323.47 684.12 326.12 C 681.68 327.76 679.04 329.29 676.00 329.08 C 666.15 328.98 656.30 329.19 646.45 328.96 C 644.82 328.00 643.16 327.07 641.53 326.11 C 639.68 327.07 637.82 328.03 635.99 329.03 C 609.00 329.08 582.00 329.02 555.00 329.06 C 549.62 329.08 544.33 328.86 539.02 327.89 C 534.07 327.08 529.20 324.61 524.84 322.22 C 518.79 318.55 515.39 312.59 513.41 305.97 C 511.95 311.74 509.82 317.97 507.47 323.45 C 506.44 326.77 502.19 328.63 499.03 329.04 C 460.08 328.94 420.95 329.04 381.99 328.99 C 375.63 328.52 371.46 323.77 370.96 317.52 C 369.18 317.40 367.54 317.14 365.85 316.55 C 357.78 329.86 343.61 340.27 331.11 349.23 C 330.07 349.64 329.05 350.06 328.02 350.50 C 326.62 350.45 325.30 350.19 324.05 349.72 C 322.70 349.61 321.35 349.52 320.00 349.45 C 312.92 356.27 304.44 361.96 295.86 366.72 C 291.84 368.78 287.87 371.09 283.98 373.40 C 280.48 373.92 277.02 373.62 273.50 373.53 C 273.05 372.79 272.61 372.04 272.16 371.30 L 269.88 371.76 C 265.82 374.64 261.49 377.05 256.97 379.13 C 250.12 382.03 243.08 383.69 236.10 386.28 C 235.39 386.45 234.69 386.61 233.98 386.78 C 231.01 388.14 228.10 387.53 225.00 387.06 C 222.89 385.90 220.62 385.01 220.19 382.33 C 218.76 382.83 217.33 383.34 215.91 383.84 C 213.61 384.57 211.30 385.23 208.99 385.90 C 207.01 386.38 205.01 386.78 203.03 387.26 C 200.58 387.44 198.27 387.27 195.96 388.26 C 194.99 388.10 194.01 387.93 193.04 387.76 C 189.84 388.92 186.38 388.40 183.03 389.11 C 179.75 388.62 176.05 388.74 173.51 386.46 C 172.07 385.11 171.16 383.10 170.18 381.40 C 166.14 381.38 162.05 381.73 158.02 381.44 C 152.98 380.78 147.97 380.01 142.96 379.14 C 140.99 378.65 139.00 378.39 136.99 378.17 C 135.62 377.82 134.25 377.55 132.86 377.36 C 131.89 376.59 130.93 375.82 129.99 375.02 C 128.62 372.65 126.81 370.68 125.72 368.15 C 125.74 364.76 121.22 365.80 119.02 364.96 C 116.16 364.17 113.42 363.62 111.12 361.59 C 110.39 361.52 109.66 361.44 108.92 361.37 C 105.29 357.99 99.65 357.22 95.98 354.05 C 94.42 352.19 93.19 350.08 91.60 348.23 C 90.57 345.23 90.31 343.67 91.52 340.59 C 90.47 339.53 88.91 338.94 87.58 338.28 C 83.35 335.06 79.73 331.77 76.40 327.62 C 72.58 324.15 69.60 320.37 66.53 316.25 C 66.67 312.83 65.31 307.31 68.76 305.28 C 68.43 302.70 65.95 300.61 64.60 298.43 C 60.14 292.74 58.46 286.52 55.24 279.86 C 54.72 278.55 54.14 277.28 53.48 276.03 C 53.49 274.59 53.76 273.26 54.29 272.02 C 54.38 270.90 54.45 269.78 54.50 268.65 C 55.51 267.56 56.53 266.47 57.56 265.39 C 57.59 264.58 57.63 263.77 57.68 262.96 C 58.06 262.01 58.35 261.03 58.54 260.01 C 56.29 256.80 55.86 252.80 54.78 249.09 C 54.20 245.48 55.00 241.44 53.77 238.01 C 53.63 234.84 52.94 230.98 54.22 227.99 C 54.33 226.94 54.44 225.89 54.54 224.84 C 55.53 223.63 56.51 222.42 57.49 221.20 C 57.47 220.32 57.46 219.44 57.44 218.56 C 59.14 217.99 60.80 217.67 62.58 217.49 C 62.29 212.09 62.01 206.36 63.13 201.04 C 63.93 195.98 65.31 191.09 65.83 185.99 C 66.46 183.57 67.01 181.12 67.59 178.69 C 69.09 176.77 70.25 174.94 70.72 172.50 C 71.84 172.39 72.96 172.28 74.08 172.18 C 75.69 171.79 77.47 171.68 78.98 170.98 C 79.72 167.34 80.07 163.65 81.13 160.05 C 81.44 158.72 81.78 157.40 82.17 156.09 C 82.72 154.70 83.26 153.31 83.81 151.92 C 84.57 150.31 85.23 148.65 85.85 146.98 C 89.20 140.46 92.04 133.84 95.93 127.59 C 97.59 127.49 99.25 127.40 100.91 127.24 C 102.80 126.23 104.63 126.46 106.67 126.52 C 109.17 117.80 114.20 108.80 120.03 101.87 C 123.62 96.94 127.60 92.14 131.50 87.43 C 135.85 87.93 139.59 85.85 144.08 86.45 C 145.24 83.59 146.68 81.00 148.68 78.64 C 152.02 74.80 154.72 70.86 158.87 67.82 C 163.52 63.67 168.39 59.79 172.97 55.56 C 174.90 55.45 177.49 55.98 179.02 54.63 C 181.76 54.52 184.49 54.60 187.22 54.51 C 197.07 43.57 209.54 39.21 221.64 31.49 C 226.20 32.28 228.75 29.04 232.96 31.30 C 234.68 31.48 236.41 31.54 238.14 31.53 C 241.16 29.17 244.59 27.64 248.12 26.21 C 250.45 25.20 252.78 24.20 255.12 23.23 C 258.38 22.10 261.68 21.01 264.89 19.74 C 267.87 18.50 270.81 18.34 273.97 18.11 C 276.77 17.32 279.31 17.10 282.07 18.19 Z" fill="#1d1d1d" />
<path d="M 314.90 19.30 C 313.78 23.85 310.27 27.41 308.79 31.92 C 308.30 34.38 307.32 36.69 306.73 39.12 C 306.27 43.79 305.37 48.37 305.22 53.06 C 304.12 56.47 304.69 60.37 304.24 63.99 C 303.71 67.61 303.22 71.25 302.46 74.83 C 296.29 75.16 289.83 75.50 283.70 74.57 C 283.91 69.90 282.73 65.54 282.14 60.97 C 281.30 57.01 280.97 52.99 279.83 49.08 C 279.61 47.34 279.51 45.64 278.78 44.01 C 278.27 39.81 277.70 35.10 278.74 30.95 C 280.09 28.51 282.01 25.99 284.55 24.71 C 286.83 23.71 289.54 23.36 292.00 22.93 C 298.45 21.97 304.90 21.10 311.36 20.16 C 312.54 19.88 313.72 19.60 314.90 19.30 Z" fill="#ffffff" />
<path d="M 267.91 22.13 C 267.40 23.82 266.81 25.45 266.11 27.07 C 264.62 33.79 265.16 41.20 265.74 48.02 C 266.89 51.90 267.22 55.99 268.19 59.92 C 268.53 61.27 268.87 62.61 269.23 63.95 C 269.49 67.60 269.90 71.11 270.94 74.62 C 266.59 75.44 262.29 74.85 257.92 75.14 C 255.95 75.84 254.15 77.05 252.18 77.77 C 251.37 77.74 250.82 77.26 250.53 76.32 C 249.72 74.53 248.84 72.78 247.84 71.08 C 243.49 63.17 238.97 55.35 234.32 47.61 C 231.56 41.73 234.05 34.75 240.08 32.16 C 248.05 29.09 256.02 26.04 263.99 22.96 C 265.21 22.49 266.60 22.35 267.91 22.13 Z" fill="#ffffff" />
<path d="M 330.06 27.17 C 334.64 27.13 339.42 27.30 343.98 27.71 C 348.25 29.34 354.09 27.32 358.03 29.73 C 352.34 35.05 346.92 41.66 344.18 49.02 C 341.79 53.05 340.83 57.52 339.00 61.78 C 337.16 66.01 335.84 70.42 334.23 74.75 C 327.97 75.52 321.56 74.93 315.26 75.13 C 316.65 62.41 318.40 49.63 319.68 36.88 C 321.34 32.63 324.99 27.29 330.06 27.17 Z" fill="#ffffff" />
<path d="M 219.59 36.29 C 219.29 41.06 218.73 46.73 220.67 51.22 C 221.26 52.66 221.78 54.11 222.55 55.47 C 227.09 63.28 231.88 70.96 236.22 78.89 C 236.81 80.60 237.53 82.26 238.32 83.89 C 239.12 91.23 238.78 98.71 238.16 106.05 C 237.80 107.36 237.58 108.67 237.51 109.99 C 237.14 118.93 237.16 127.85 237.43 136.79 C 239.48 136.31 241.52 135.79 243.58 135.31 C 244.46 134.58 245.34 133.84 246.21 133.10 C 246.19 128.61 247.22 124.35 247.72 119.92 C 248.25 118.30 248.76 116.66 249.30 115.04 C 249.35 114.18 249.41 113.32 249.46 112.46 C 250.12 112.34 250.78 112.23 251.44 112.11 C 251.90 113.31 252.34 114.56 252.94 115.69 C 253.87 117.19 255.90 117.36 256.80 118.88 C 256.90 123.54 254.96 127.83 255.18 132.53 C 256.81 132.42 258.44 132.32 260.07 132.23 C 261.08 131.86 262.08 131.50 263.09 131.14 C 263.40 129.76 263.77 128.40 264.20 127.05 C 264.41 126.37 264.62 125.69 264.84 125.01 C 266.40 123.42 266.22 120.88 267.83 119.56 C 270.82 119.23 273.90 119.39 276.91 119.44 C 275.35 123.74 271.68 127.80 271.34 132.38 C 273.92 132.48 276.50 132.57 279.08 132.51 C 280.11 129.50 282.05 127.40 283.82 124.83 C 285.80 122.28 286.98 119.60 290.53 119.05 C 283.19 140.75 275.80 162.44 268.41 184.12 C 267.59 186.61 267.07 189.06 268.33 191.51 C 269.76 196.11 274.46 198.28 279.00 198.09 C 287.93 198.01 296.85 198.12 305.78 198.03 C 305.17 200.15 304.54 202.26 304.06 204.41 C 305.16 204.70 306.25 205.02 307.32 205.40 C 304.89 205.87 302.48 206.12 300.00 206.12 C 287.66 206.07 275.33 206.11 263.00 206.05 C 260.43 205.79 257.83 207.42 255.73 208.75 C 254.04 211.12 252.35 213.99 252.65 217.00 C 252.87 224.67 253.23 232.34 253.52 240.01 C 253.55 241.31 253.78 242.33 254.30 243.50 C 254.75 244.39 255.19 245.29 255.62 246.18 C 254.07 246.41 252.53 246.66 250.98 246.93 C 249.59 247.56 248.61 248.27 247.55 249.37 C 247.51 251.25 247.40 253.13 247.21 255.01 C 246.40 256.98 246.40 259.00 246.24 261.10 C 245.75 262.71 245.26 264.32 244.74 265.92 C 243.80 269.66 243.17 273.37 241.73 276.96 C 241.58 277.66 241.44 278.36 241.29 279.06 C 240.72 280.34 240.16 281.62 239.59 282.90 C 239.30 289.00 238.20 296.40 240.69 302.13 C 242.93 306.54 245.27 310.91 247.75 315.20 C 248.24 316.09 248.73 316.99 249.21 317.89 C 252.68 323.99 256.38 329.98 259.91 336.04 C 261.24 339.96 260.54 344.57 257.51 347.52 C 254.52 350.95 248.98 351.94 244.84 353.75 C 243.60 354.24 242.36 354.71 241.12 355.20 C 236.15 357.12 231.15 358.98 226.17 360.88 C 226.58 358.18 227.32 355.64 228.26 353.08 C 228.87 346.35 229.07 339.69 227.47 333.07 C 225.73 322.96 222.66 314.28 223.34 304.00 C 223.30 297.21 225.99 291.65 228.50 285.56 C 230.33 280.36 232.43 275.28 234.29 270.10 C 234.45 269.39 234.61 268.68 234.77 267.96 C 235.14 266.95 235.51 265.93 235.87 264.92 C 236.23 263.60 236.57 262.28 236.91 260.97 C 237.59 257.43 238.24 253.89 238.87 250.35 C 235.97 250.47 233.26 250.17 230.61 251.59 C 230.36 252.67 230.06 253.72 229.71 254.76 C 225.52 264.31 221.05 273.69 215.48 282.53 C 212.21 287.65 209.02 293.77 209.27 300.00 C 209.35 304.26 209.04 308.83 210.17 312.97 C 210.68 316.98 211.44 320.98 212.15 324.95 C 212.38 326.65 212.66 328.32 213.16 329.96 C 213.42 331.97 213.56 333.96 214.20 335.89 C 214.45 337.63 214.52 339.31 215.30 340.92 C 215.61 343.94 215.88 347.12 215.44 350.14 C 214.10 353.74 211.57 356.37 208.31 358.30 C 207.21 358.60 206.12 358.91 205.03 359.24 C 198.69 359.99 192.23 360.90 185.99 362.20 C 183.66 362.48 181.32 362.62 178.97 362.72 C 179.81 359.52 181.72 357.11 183.22 354.22 C 184.62 351.75 185.32 348.76 186.20 346.04 C 186.37 345.32 186.54 344.60 186.72 343.88 C 187.66 341.85 187.35 339.22 187.62 336.99 C 189.29 326.80 189.06 315.90 191.80 305.92 C 193.60 299.01 197.38 293.25 201.28 287.37 C 208.08 277.48 214.55 267.65 219.86 256.86 C 220.71 254.97 222.57 252.88 222.42 250.76 C 220.20 250.36 217.97 249.98 215.75 249.60 C 215.15 250.03 214.65 250.54 214.26 251.12 C 208.00 260.80 200.71 269.46 192.96 277.96 C 188.20 282.47 184.29 287.77 181.70 293.82 C 181.40 294.87 181.09 295.92 180.77 296.97 C 180.58 297.66 180.40 298.36 180.21 299.05 C 179.36 301.03 179.49 302.96 179.25 305.07 C 178.06 307.60 178.88 310.36 177.78 312.97 C 177.70 317.74 176.61 322.31 176.25 327.04 C 175.16 330.20 175.81 333.72 175.17 337.08 C 174.66 339.71 174.52 342.36 174.25 345.02 C 171.95 351.32 166.44 357.46 159.08 355.84 C 151.41 355.23 143.85 354.33 136.21 353.56 C 136.33 352.97 136.46 352.37 136.58 351.77 C 141.93 346.74 146.40 340.95 149.22 334.13 C 149.85 332.78 150.52 331.44 151.20 330.12 C 151.84 328.11 152.50 326.10 153.20 324.11 C 154.14 321.74 155.15 319.41 156.23 317.10 C 156.72 315.36 157.23 313.63 157.76 311.91 C 160.08 307.36 161.43 302.46 163.93 298.00 C 167.39 291.12 172.70 285.68 178.10 280.10 C 188.55 270.45 198.19 260.05 206.98 248.87 L 207.78 246.79 C 205.84 246.17 201.78 244.18 200.12 245.88 C 192.61 253.50 184.30 260.39 175.66 266.69 C 169.33 270.98 163.39 275.47 159.04 281.89 C 156.27 286.32 153.80 291.11 152.27 296.13 C 151.76 297.04 151.25 297.96 150.73 298.87 C 149.72 302.35 148.34 305.61 146.73 308.85 C 145.74 313.53 143.08 317.35 141.76 321.89 C 141.23 323.61 140.58 325.29 139.77 326.90 C 139.21 328.29 138.66 329.68 138.23 331.11 C 136.55 335.49 133.15 339.14 129.11 341.48 C 125.93 341.73 123.03 342.20 119.98 340.90 C 117.94 340.00 115.87 339.16 113.81 338.30 C 109.62 336.61 105.61 334.65 101.26 333.37 C 101.32 332.77 101.38 332.16 101.45 331.55 C 106.65 328.67 111.05 324.22 115.14 319.95 C 125.03 308.06 132.06 293.85 141.94 281.94 C 147.95 274.54 155.53 269.55 163.51 264.52 C 174.69 257.07 186.00 249.22 195.85 240.07 C 194.74 238.82 193.64 237.56 192.55 236.28 C 191.01 236.37 189.66 236.19 188.36 237.20 C 183.43 240.46 178.43 243.60 173.19 246.32 C 163.00 252.28 152.80 254.80 143.64 262.58 C 137.20 268.76 133.09 275.66 127.80 282.85 C 121.44 291.94 115.30 301.18 109.19 310.44 C 106.48 314.21 103.36 316.62 99.06 318.37 C 97.29 318.43 95.52 318.47 93.75 318.51 C 87.78 313.96 82.70 308.42 76.61 304.06 C 76.47 303.23 76.33 302.40 76.20 301.58 C 81.41 299.81 86.29 296.87 90.81 293.76 C 100.70 285.83 108.83 276.85 117.96 267.97 C 124.67 261.12 131.84 255.12 140.76 251.34 C 145.08 249.31 149.57 247.73 153.94 245.82 C 158.47 244.17 162.69 241.84 167.27 240.35 C 167.39 240.11 167.52 239.87 167.65 239.62 C 174.20 237.26 180.54 232.99 186.83 230.19 C 186.53 228.19 186.00 226.26 185.41 224.32 C 183.98 224.40 182.35 224.27 181.05 224.85 C 173.85 227.67 166.54 230.13 159.06 232.13 C 157.72 232.44 156.39 232.77 155.07 233.16 C 146.68 234.59 138.73 236.83 131.67 241.77 C 125.26 246.04 120.58 251.73 114.69 256.65 C 107.92 262.88 101.57 269.57 94.97 275.98 C 91.26 279.56 87.84 283.81 82.94 285.80 C 80.48 286.94 77.38 286.58 74.71 286.61 C 73.28 285.22 71.94 283.81 71.08 281.98 C 69.16 277.94 66.94 274.08 64.82 270.15 C 64.17 268.78 63.42 267.56 62.48 266.37 C 62.49 265.48 62.50 264.59 62.52 263.70 C 64.35 263.57 66.17 263.36 67.97 262.96 C 82.53 259.28 92.70 250.02 105.20 242.23 C 114.76 235.87 124.70 228.80 136.42 227.39 C 136.52 227.15 136.62 226.90 136.72 226.65 C 138.87 226.66 140.94 226.53 143.01 225.89 C 149.75 224.99 156.43 223.53 163.08 222.13 C 169.31 220.65 175.36 218.56 181.60 217.17 C 181.84 214.83 181.86 212.48 181.84 210.12 C 177.81 210.31 173.98 210.32 170.02 211.13 C 165.71 212.07 161.19 210.97 157.02 212.20 C 152.56 212.88 148.39 211.51 143.98 211.74 C 141.21 212.73 138.29 212.28 135.54 213.21 C 130.42 214.78 125.45 217.00 120.94 219.89 C 109.91 226.83 98.95 233.91 88.06 241.07 C 82.72 244.50 78.51 248.29 72.03 249.35 C 69.18 249.77 67.24 248.21 64.82 247.05 C 64.64 245.35 64.45 243.65 64.21 241.96 C 63.13 237.35 63.35 232.61 61.77 228.03 C 61.53 225.81 61.39 223.59 61.30 221.37 C 68.01 222.00 74.60 220.98 81.05 219.17 C 83.98 218.00 86.99 217.06 89.89 215.81 C 91.97 214.95 94.06 214.11 96.15 213.26 C 104.67 209.79 113.29 205.84 122.06 203.12 C 130.46 200.44 138.35 201.46 147.00 201.64 C 158.63 203.08 170.60 202.94 182.21 201.38 C 182.57 200.60 182.93 199.81 183.30 199.03 C 183.43 197.22 183.54 195.40 183.63 193.58 C 177.88 193.80 171.68 192.84 166.06 191.72 C 165.02 191.54 163.97 191.37 162.92 191.21 C 161.30 190.71 159.68 190.24 158.06 189.75 C 157.34 189.60 156.62 189.46 155.90 189.31 C 150.05 186.71 144.22 187.09 137.99 187.18 C 132.90 187.21 127.76 189.25 123.09 191.17 C 112.01 195.24 100.99 199.66 90.10 204.21 C 88.43 204.86 86.77 205.52 85.15 206.27 C 79.65 208.55 74.18 210.07 69.42 205.38 C 69.08 199.79 70.25 194.48 70.95 188.98 C 71.43 186.28 71.47 183.64 72.26 181.01 C 72.34 179.72 72.41 178.43 72.46 177.14 C 74.02 177.26 75.57 177.38 77.09 177.75 C 82.79 179.32 89.15 178.72 95.01 178.57 C 103.72 177.50 112.29 175.22 121.00 174.21 C 124.46 173.08 128.39 173.32 132.00 173.13 C 136.53 173.16 141.63 172.80 145.97 174.19 C 146.68 174.36 147.39 174.54 148.10 174.72 C 152.00 176.28 155.96 177.66 159.84 179.28 C 167.16 181.81 174.35 183.72 181.95 185.20 C 183.44 185.41 185.74 186.17 186.99 185.06 C 188.39 182.82 189.54 180.47 189.69 177.79 C 186.66 177.25 183.94 175.99 181.14 174.79 C 175.62 172.08 170.30 169.36 165.41 165.60 C 162.87 163.67 160.13 162.10 157.27 160.72 C 152.25 159.21 147.17 159.19 142.00 159.59 C 139.00 160.06 136.08 160.63 133.03 160.63 C 133.82 160.87 134.61 161.12 135.40 161.38 C 128.34 160.93 120.92 162.87 114.00 164.16 C 105.33 164.84 97.71 167.77 88.90 166.45 C 87.78 165.35 86.66 164.29 85.66 163.07 C 85.39 161.41 85.53 159.62 85.60 157.94 C 87.04 155.74 88.01 153.39 88.71 150.86 C 90.99 145.03 94.15 139.29 95.71 133.24 C 97.18 133.42 98.38 133.38 99.51 134.47 C 102.07 136.59 105.00 137.74 108.05 138.94 C 110.02 139.48 112.02 139.67 114.05 139.87 C 117.74 141.15 121.15 140.19 125.13 140.87 C 128.09 141.43 130.99 141.58 134.00 141.53 C 139.33 141.43 144.69 142.16 149.93 143.08 C 161.78 145.20 168.10 154.01 177.52 160.50 C 182.07 163.95 187.16 166.42 191.88 169.58 C 193.26 169.61 194.63 169.61 196.01 169.60 C 197.02 168.03 198.16 166.61 199.43 165.24 C 199.48 164.46 199.53 163.68 199.58 162.90 C 198.67 162.32 197.81 161.70 196.99 161.02 C 190.67 155.05 184.61 149.07 180.25 141.45 C 176.01 135.90 169.96 132.71 163.01 132.17 C 159.73 131.13 156.32 131.99 153.01 130.84 C 148.66 130.49 144.31 130.49 139.96 130.14 C 135.56 129.06 131.46 129.56 126.95 129.20 C 123.97 128.21 121.15 128.69 118.10 128.28 C 116.05 127.63 114.20 125.92 112.52 124.62 C 112.37 122.28 112.34 119.97 112.57 117.64 C 118.44 109.70 123.91 101.43 129.66 93.41 C 131.88 92.91 131.76 94.72 132.81 96.08 C 134.62 98.36 136.54 100.41 138.83 102.22 C 143.75 104.93 148.73 107.15 154.11 108.79 C 156.40 109.53 158.65 110.33 160.87 111.27 C 162.29 111.76 163.70 112.26 165.12 112.76 C 166.76 113.50 168.44 114.16 170.13 114.77 C 173.56 116.33 176.87 117.68 179.60 120.40 C 186.91 126.87 189.39 136.16 195.83 144.11 C 198.81 148.74 202.72 152.43 206.03 156.75 C 208.57 155.61 210.40 153.70 212.54 152.00 C 212.54 150.98 212.54 149.95 212.54 148.92 C 211.42 147.43 210.52 145.83 209.70 144.16 C 207.50 139.18 205.29 134.26 203.79 129.02 C 203.59 128.33 203.40 127.64 203.21 126.94 C 202.09 122.53 201.31 118.41 198.14 114.90 C 194.56 110.52 189.97 109.12 185.15 106.68 C 183.63 106.11 182.11 105.66 180.52 105.36 C 180.51 105.10 180.50 104.84 180.49 104.58 C 178.14 104.14 176.00 103.24 173.86 102.21 C 172.62 101.70 171.36 101.24 170.10 100.77 C 168.68 100.26 167.28 99.73 165.87 99.21 C 164.20 98.54 162.54 97.88 160.86 97.25 C 159.59 96.72 158.32 96.20 157.06 95.66 C 156.34 95.54 155.63 95.42 154.92 95.31 C 151.65 93.82 148.91 92.70 147.39 89.18 C 147.46 87.42 147.51 85.66 147.57 83.90 C 150.29 78.96 154.63 76.38 158.46 72.41 C 162.42 68.40 166.67 64.66 170.48 60.52 C 171.20 60.41 171.92 60.30 172.64 60.20 C 173.11 62.11 173.57 64.03 174.08 65.94 C 175.74 69.73 177.91 73.21 181.03 75.96 C 188.02 82.00 195.43 87.56 202.46 93.55 C 206.32 96.88 208.44 101.22 210.21 105.90 C 211.86 112.47 212.51 119.37 214.31 125.88 C 214.47 126.59 214.63 127.30 214.79 128.01 C 216.04 132.04 217.27 136.11 218.82 140.04 C 219.38 141.47 219.68 142.90 219.88 144.42 C 221.03 144.47 222.19 144.51 223.35 144.53 C 225.02 143.26 226.77 142.14 228.61 141.12 C 228.58 139.02 228.60 137.02 227.78 135.05 C 226.95 125.76 227.24 116.31 227.38 107.00 C 227.53 104.21 226.67 101.72 225.89 99.09 C 223.64 93.70 219.53 90.51 215.47 86.54 C 207.64 79.68 199.52 73.13 191.49 66.49 C 190.18 65.37 189.38 63.58 188.51 62.12 C 188.34 57.92 189.49 54.36 192.95 51.84 C 200.37 46.58 208.38 42.14 215.93 37.05 L 216.71 36.55 C 217.67 36.45 218.63 36.36 219.59 36.29 Z" fill="#ffffff" />
<path d="M 364.98 41.06 C 369.23 39.40 372.33 41.12 376.11 42.80 C 377.36 43.29 378.61 43.77 379.86 44.27 C 382.23 45.19 384.57 46.18 386.90 47.21 C 389.06 47.94 391.09 48.79 393.11 49.86 C 390.45 52.36 387.18 54.00 384.53 56.54 C 378.93 61.67 373.69 67.77 370.12 74.49 C 366.72 75.44 363.47 75.08 360.00 75.13 C 355.46 75.14 350.93 75.15 346.39 75.14 C 346.83 73.71 347.27 72.28 347.70 70.84 C 348.20 69.61 348.70 68.38 349.22 67.15 C 350.23 65.12 351.13 63.06 351.81 60.90 C 353.02 56.93 354.85 53.24 356.36 49.39 C 357.94 46.17 361.71 42.55 364.98 41.06 Z" fill="#ffffff" />
<path d="M 392.30 65.28 C 394.75 63.82 398.29 64.45 401.03 64.58 C 401.82 65.48 402.62 66.36 403.45 67.23 C 406.96 69.22 408.71 72.74 412.51 74.20 C 410.10 74.96 408.05 75.91 405.96 77.32 C 403.67 76.52 401.41 75.12 399.02 75.14 C 393.61 74.97 388.26 75.36 382.85 74.91 C 384.90 70.71 388.03 67.28 392.30 65.28 Z" fill="#ffffff" />
<path d="M 263.86 84.07 C 308.24 84.12 352.62 84.19 397.00 84.11 C 399.50 84.14 402.14 83.96 404.60 84.45 C 406.88 85.18 405.95 87.16 405.59 88.88 C 402.66 97.82 399.47 106.70 396.57 115.65 C 385.81 119.20 375.08 123.04 364.19 126.13 C 365.68 120.98 368.72 115.76 368.94 110.38 C 358.67 110.26 348.39 110.45 338.12 110.31 C 328.88 136.46 320.32 162.88 311.14 189.06 C 301.28 189.02 291.42 189.09 281.56 189.02 C 290.14 162.74 299.52 136.67 308.04 110.37 C 293.62 110.38 279.21 110.41 264.79 110.34 C 264.33 101.61 263.75 92.81 263.86 84.07 Z" fill="#2689e2" />
<path d="M 416.26 84.23 C 426.03 83.93 435.86 84.28 445.64 84.08 C 444.82 87.29 443.73 90.40 442.63 93.52 C 436.72 111.01 430.74 128.49 424.84 145.99 C 423.72 149.51 422.46 154.36 424.22 157.82 C 426.09 161.04 430.60 161.72 434.00 161.75 C 447.66 161.78 461.34 161.75 475.00 161.76 C 480.31 161.76 485.78 160.55 489.56 156.55 C 493.62 152.45 495.11 147.29 496.98 141.99 C 503.41 122.70 510.12 103.50 516.43 84.18 C 526.41 83.94 536.41 84.02 546.40 84.01 C 540.11 103.06 533.42 121.98 527.03 141.00 C 524.68 147.94 522.18 155.13 518.50 161.49 C 512.95 171.47 504.69 179.75 494.01 184.10 C 484.30 188.36 474.46 188.93 464.00 189.01 C 450.33 188.97 436.67 189.03 423.00 188.98 C 415.58 188.93 407.18 188.12 400.63 184.37 C 395.63 181.57 392.28 176.58 391.45 170.92 C 389.91 161.41 393.11 151.97 396.17 143.10 C 402.89 123.55 409.33 103.68 416.26 84.23 Z" fill="#2689e2" />
<path d="M 563.99 84.18 C 590.66 84.17 617.33 84.18 644.00 84.17 C 650.32 84.16 657.60 84.71 663.28 87.69 C 667.75 90.00 670.79 94.09 671.52 99.09 C 672.93 107.32 669.20 116.75 666.60 124.51 C 662.86 135.36 657.25 145.10 647.29 151.31 C 635.97 158.44 623.42 158.22 610.55 157.96 C 612.06 162.05 614.81 165.50 616.46 169.55 C 619.27 175.99 622.64 182.23 625.04 188.83 C 613.71 189.28 602.33 188.96 590.99 189.02 C 584.23 172.04 577.80 154.91 570.92 137.99 C 570.26 138.98 569.71 140.01 569.26 141.09 C 563.86 157.06 558.48 173.06 553.01 189.02 C 543.10 189.04 533.17 189.14 523.26 188.96 C 534.06 157.51 544.78 126.02 555.49 94.53 C 556.45 91.85 557.17 88.97 558.52 86.46 C 559.81 84.46 561.78 84.18 563.99 84.18 Z" fill="#2689e2" />
<path d="M 696.00 84.16 C 721.66 84.19 747.34 84.17 773.00 84.17 C 778.88 84.18 785.41 84.00 791.11 85.55 C 794.90 86.65 798.90 88.82 800.38 92.70 C 802.67 98.25 801.22 104.07 799.49 109.53 C 797.50 115.44 795.77 121.92 791.83 126.85 C 789.27 130.25 786.02 132.35 782.68 134.87 C 784.92 137.02 787.03 138.89 787.69 142.08 C 789.48 148.82 785.77 155.57 783.75 161.91 C 780.79 170.65 776.08 179.05 767.92 183.86 C 760.18 188.52 751.82 189.04 743.00 189.05 C 726.42 188.97 709.83 189.18 693.26 188.94 C 693.00 182.63 692.92 176.28 692.51 169.98 C 692.55 169.05 692.20 168.29 691.48 167.70 C 688.91 174.68 686.92 182.14 684.00 188.93 C 674.20 189.21 664.35 189.00 654.54 189.02 C 665.58 156.00 677.07 123.10 688.17 90.10 C 688.83 88.41 689.39 86.05 691.05 85.08 C 692.45 84.07 694.34 84.25 696.00 84.16 Z" fill="#2689e2" />
<path d="M 820.97 84.22 C 830.73 83.99 840.53 84.19 850.30 84.14 C 849.46 87.17 848.43 90.15 847.39 93.12 C 836.54 125.07 825.66 157.01 814.82 188.97 C 804.99 189.04 795.16 188.98 785.33 189.00 C 796.48 155.23 808.24 121.59 819.54 87.87 C 819.97 86.62 820.37 85.40 820.97 84.22 Z" fill="#2689e2" />
<path d="M 871.00 84.10 C 884.33 84.23 897.67 84.15 911.00 84.17 C 913.18 84.31 915.57 84.02 917.01 86.02 C 917.93 88.60 918.27 91.44 918.79 94.12 C 922.72 115.08 926.69 136.03 930.61 156.99 C 931.11 159.54 931.41 162.26 932.31 164.70 C 934.02 165.79 935.97 165.60 937.68 164.64 C 938.74 163.31 939.26 161.49 939.84 159.90 C 948.25 134.62 956.99 109.44 965.36 84.15 C 974.37 83.99 983.39 84.00 992.41 84.01 C 981.37 117.01 969.91 149.91 958.83 182.90 C 958.17 184.60 957.57 186.91 956.00 187.98 C 954.45 189.19 951.87 188.96 950.00 189.06 C 937.00 189.01 923.99 189.06 911.00 189.04 C 908.70 188.87 906.43 189.15 905.02 186.95 C 903.72 184.22 903.42 180.93 902.73 178.00 C 898.04 155.44 893.38 132.60 888.62 110.08 C 888.11 107.30 885.45 107.69 883.38 108.40 C 882.17 109.33 881.69 110.73 881.16 112.10 C 872.68 137.79 863.79 163.36 855.12 188.99 C 846.17 188.97 837.21 189.07 828.26 188.93 C 839.06 157.26 849.80 125.56 860.55 93.87 C 861.52 91.26 862.16 88.11 863.87 85.89 C 865.78 83.81 868.44 84.24 871.00 84.10 Z" fill="#2689e2" />
<path d="M 1010.99 84.17 C 1045.66 84.17 1080.33 84.18 1115.00 84.17 C 1118.11 84.22 1121.38 83.92 1124.44 84.49 C 1126.67 85.88 1125.21 87.91 1124.84 89.91 C 1121.88 98.54 1119.07 107.23 1116.00 115.82 C 1105.24 119.14 1094.64 123.03 1083.83 126.17 C 1085.33 120.87 1087.93 115.80 1088.85 110.39 C 1069.90 110.22 1050.95 110.40 1032.00 110.29 C 1030.49 110.30 1028.94 110.26 1027.44 110.50 C 1026.03 111.29 1025.66 112.68 1025.13 114.09 C 1023.92 117.80 1022.64 121.50 1021.59 125.26 C 1037.77 125.36 1053.96 125.30 1070.14 125.29 C 1068.21 132.60 1065.39 139.71 1063.01 146.89 C 1049.35 146.90 1035.69 146.92 1022.03 146.94 C 1021.68 140.65 1021.51 134.34 1021.13 128.05 C 1019.68 129.64 1019.26 131.52 1018.57 133.50 C 1015.48 142.82 1012.13 152.05 1009.15 161.41 C 1013.50 162.14 1017.54 161.72 1022.00 161.79 C 1047.78 161.78 1073.57 161.69 1099.35 161.83 C 1096.92 170.00 1093.82 177.96 1091.25 186.09 C 1090.70 187.06 1090.61 189.38 1089.05 189.00 C 1052.82 189.10 1016.26 188.99 980.00 189.06 C 977.47 189.03 974.78 189.20 972.30 188.65 C 971.58 188.22 971.18 187.66 971.11 186.96 C 971.45 184.08 972.71 181.26 973.60 178.51 C 983.19 150.38 992.76 122.24 1002.33 94.10 C 1003.25 91.54 1003.93 88.70 1005.33 86.36 C 1006.70 84.28 1008.75 84.22 1010.99 84.17 Z" fill="#2689e2" />
<path d="M 266.23 86.30 C 269.78 85.92 273.43 86.10 277.00 86.08 C 313.33 86.09 349.67 86.08 386.00 86.09 C 391.55 86.12 397.09 85.96 402.64 86.24 C 400.49 93.45 397.88 100.51 395.64 107.69 C 395.07 109.15 394.62 111.33 393.23 112.21 C 390.68 113.52 387.77 114.20 385.06 115.14 C 380.04 116.72 375.14 118.69 370.06 119.91 C 370.68 115.45 372.77 111.88 371.84 107.21 C 365.54 106.67 359.33 106.99 353.00 106.92 C 347.04 106.99 341.20 106.66 335.26 107.22 C 331.01 118.57 327.65 130.26 323.52 141.65 C 321.62 146.27 320.15 151.02 318.61 155.75 C 310.97 155.80 303.75 157.69 296.05 156.76 C 296.69 151.64 299.02 147.51 300.62 142.69 C 303.46 134.15 306.29 125.60 309.18 117.07 C 310.36 113.82 310.16 110.58 309.80 107.21 C 295.64 106.46 281.39 107.27 267.21 106.78 C 266.94 99.88 267.46 93.15 266.23 86.30 Z" fill="#62a9ea" />
<path d="M 418.48 86.35 C 425.90 85.78 433.51 86.10 440.96 86.23 C 439.57 93.90 435.98 101.28 433.58 108.67 C 429.74 120.45 425.69 132.16 421.89 143.95 C 421.21 145.65 421.07 148.46 419.72 149.65 C 414.60 150.43 409.17 149.40 404.02 150.19 C 401.70 150.56 399.39 150.83 397.03 150.89 C 398.47 142.71 402.44 134.87 404.87 126.94 C 409.42 113.45 413.79 99.77 418.48 86.35 Z" fill="#62a9ea" />
<path d="M 519.36 86.35 C 526.71 85.78 534.26 86.10 541.64 86.24 C 537.33 99.57 533.07 112.95 528.12 126.06 C 525.99 132.29 524.14 138.64 521.74 144.77 C 516.19 145.20 510.73 144.41 505.32 145.44 C 503.26 145.82 501.18 145.89 499.09 145.84 C 500.61 140.04 502.80 134.41 504.61 128.69 C 507.78 119.48 510.54 110.11 514.13 101.05 C 516.01 96.24 517.07 90.98 519.36 86.35 Z" fill="#62a9ea" />
<path d="M 563.32 86.39 C 566.46 85.79 569.82 86.14 573.00 86.08 C 597.67 86.07 622.34 86.12 647.00 86.05 C 651.94 86.01 656.93 87.45 661.33 89.63 C 665.74 91.94 668.30 96.10 668.92 100.99 C 669.59 105.31 667.82 108.68 666.67 112.70 C 664.07 121.32 661.00 129.46 656.04 137.03 C 654.74 138.66 653.43 141.07 651.02 140.82 C 645.94 140.76 641.06 142.11 636.00 141.95 C 625.67 141.85 615.33 141.98 605.00 141.88 C 600.26 141.76 595.76 143.21 591.00 142.95 C 586.45 142.77 581.78 143.25 577.27 142.66 C 575.83 141.55 575.62 138.90 575.08 137.23 C 580.40 136.72 585.68 136.95 591.00 136.92 C 600.67 136.92 610.33 136.91 620.00 136.92 C 623.28 136.90 626.71 137.32 629.96 136.83 C 634.24 135.54 637.41 132.13 638.87 127.95 C 640.55 123.01 642.63 117.24 642.01 111.98 C 641.33 107.87 637.82 106.58 634.00 106.89 C 617.00 106.94 600.00 106.91 583.00 106.90 C 581.08 106.93 579.17 107.07 577.25 107.22 C 574.02 116.26 570.34 124.42 568.50 133.81 C 567.04 136.66 566.03 139.70 564.61 142.54 C 561.86 144.05 559.05 143.91 556.00 143.95 C 551.36 143.91 546.73 144.00 542.10 143.76 C 544.30 135.99 547.13 128.38 549.62 120.69 C 553.46 110.93 556.46 100.88 559.84 90.93 C 560.45 89.01 561.59 87.44 563.32 86.39 Z" fill="#62a9ea" />
<path d="M 694.30 86.36 C 697.46 85.83 700.80 86.13 704.00 86.08 C 728.00 86.08 752.00 86.10 776.00 86.07 C 781.21 85.85 786.15 85.80 791.01 87.98 C 795.10 89.49 798.40 93.67 798.84 97.98 C 798.15 103.20 795.94 108.29 794.41 113.32 C 792.22 120.43 787.39 126.25 781.20 130.29 C 780.71 133.86 780.62 136.62 782.54 139.79 C 765.37 140.08 748.18 139.83 731.00 139.91 C 727.29 140.08 723.74 141.06 720.00 140.95 C 704.79 140.77 689.56 141.14 674.36 140.76 C 677.26 131.35 680.55 122.05 683.61 112.69 C 686.17 105.24 688.41 97.57 691.43 90.32 C 692.13 88.76 692.77 87.30 694.30 86.36 Z" fill="#62a9ea" />
<path d="M 824.98 86.15 C 831.94 86.01 838.98 85.99 845.94 86.25 C 844.90 90.27 843.09 93.98 841.83 97.93 C 837.13 112.22 832.29 126.47 827.60 140.77 C 819.93 141.32 812.70 140.79 805.12 139.63 C 806.30 134.57 808.60 129.99 810.17 125.07 C 814.03 113.34 818.00 101.66 821.83 89.93 C 822.69 88.29 822.54 85.83 824.98 86.15 Z" fill="#62a9ea" />
<path d="M 873.00 86.05 C 885.66 86.18 898.36 85.98 911.02 86.13 C 914.68 86.05 914.92 89.60 915.58 92.33 C 918.66 108.80 921.95 125.26 924.75 141.78 C 915.99 142.00 907.13 142.01 898.38 141.78 C 896.79 133.15 895.07 124.51 893.23 115.94 C 892.28 112.48 892.02 108.66 890.55 105.39 C 887.10 102.74 879.20 103.32 878.56 108.66 C 874.98 119.37 871.62 130.18 867.74 140.77 C 861.18 141.01 854.57 141.01 848.01 140.77 C 848.59 137.34 850.12 134.34 851.17 131.07 C 855.27 118.59 859.50 106.16 863.59 93.68 C 864.33 91.58 865.09 89.22 866.45 87.42 C 868.10 85.81 870.87 86.14 873.00 86.05 Z" fill="#62a9ea" />
<path d="M 969.04 86.22 C 975.21 85.90 981.46 86.06 987.64 86.24 C 981.80 105.30 974.71 123.83 968.60 142.77 C 962.12 143.01 955.58 143.01 949.10 142.76 C 954.58 124.98 960.88 107.41 966.57 89.68 C 967.10 88.58 967.42 86.07 969.04 86.22 Z" fill="#62a9ea" />
<path d="M 1011.05 86.23 C 1014.00 85.91 1017.03 86.10 1020.00 86.08 C 1049.67 86.09 1079.33 86.08 1109.00 86.09 C 1113.30 86.07 1117.60 86.02 1121.90 86.24 C 1119.46 94.83 1116.28 103.22 1113.61 111.75 C 1105.72 114.75 1097.51 117.42 1089.42 119.84 C 1090.87 115.52 1091.50 111.77 1090.81 107.21 C 1087.20 106.91 1083.61 106.84 1080.00 106.91 C 1062.69 106.93 1045.30 106.90 1028.00 106.91 C 1026.71 107.12 1023.90 106.69 1023.49 108.34 C 1021.54 113.45 1019.39 118.37 1018.51 123.82 C 1014.99 130.48 1013.61 137.87 1010.72 144.88 C 1006.75 144.85 1002.97 143.74 999.00 143.88 C 995.68 143.95 992.36 143.94 989.04 143.77 C 990.07 137.80 992.68 132.13 994.39 126.32 C 998.04 117.03 1000.95 107.51 1004.15 98.06 C 1005.30 94.73 1006.21 91.06 1008.02 88.02 C 1008.63 86.96 1009.87 86.39 1011.05 86.23 Z" fill="#62a9ea" />
<path d="M 715.00 103.89 C 731.33 103.93 747.67 103.93 764.00 103.89 C 766.73 104.06 769.07 103.57 770.64 106.30 C 772.02 112.47 770.62 118.38 767.99 123.99 C 766.38 126.90 763.47 129.13 760.01 128.93 C 741.07 128.83 722.12 129.09 703.18 128.79 C 702.84 125.74 702.73 122.85 703.82 119.93 C 705.44 115.43 706.70 110.77 708.48 106.34 C 709.80 103.48 712.36 104.10 715.00 103.89 Z" fill="#2689e2" />
<path d="M 715.99 107.44 C 731.02 107.45 745.97 107.45 761.00 107.44 C 763.20 107.53 766.15 107.41 767.71 109.27 C 769.33 111.17 768.29 113.77 767.77 115.89 C 766.72 119.18 765.37 123.33 762.57 125.55 C 759.96 127.52 757.12 127.51 754.00 127.60 C 737.73 127.67 721.47 127.56 705.20 127.56 C 707.20 121.75 708.95 115.82 711.11 110.08 C 711.98 107.78 713.75 107.42 715.99 107.44 Z" fill="#1d1d1d" />
<path d="M 582.06 110.39 C 597.67 110.21 613.38 110.40 629.00 110.30 C 632.13 110.37 636.04 110.15 638.32 112.74 C 639.88 115.03 638.74 118.55 638.03 121.01 C 636.72 124.81 635.34 129.54 632.42 132.41 C 629.27 135.46 625.12 135.55 621.00 135.75 C 604.47 135.84 587.93 135.69 571.40 135.80 C 573.34 128.81 575.99 122.02 578.13 115.09 C 579.02 112.89 579.12 110.49 582.06 110.39 Z" fill="#1d1d1d" />
<path d="M 713.43 116.51 C 726.60 116.33 739.85 116.56 753.03 116.40 C 752.71 117.03 752.39 117.65 752.07 118.28 C 739.08 119.01 725.99 118.40 712.98 118.60 C 713.12 117.90 713.27 117.20 713.43 116.51 Z" fill="#ffffff" />
<path d="M 581.38 119.38 C 595.57 119.22 609.84 119.46 624.03 119.27 C 623.17 121.61 622.23 123.90 621.04 126.09 C 618.36 126.40 615.70 126.75 613.00 126.77 C 601.65 126.80 590.30 126.70 578.96 126.81 C 579.78 124.34 580.48 121.82 581.38 119.38 Z" fill="#ffffff" />
<path d="M 351.78 118.90 C 350.90 122.26 349.36 125.33 351.04 128.73 C 351.57 129.52 352.10 130.31 352.63 131.11 C 346.46 134.31 339.55 136.86 332.98 139.15 C 334.17 135.70 334.99 131.87 336.75 128.65 C 340.78 125.91 345.21 124.22 348.84 120.79 C 349.81 120.14 350.79 119.51 351.78 118.90 Z" fill="#ffffff" />
<path d="M 387.05 126.88 C 385.09 132.18 383.40 137.55 381.56 142.88 C 381.14 143.88 380.76 145.25 379.82 145.86 C 376.38 148.51 372.03 150.34 368.12 152.22 C 362.99 154.27 357.63 155.41 352.20 156.34 C 343.14 157.64 334.11 159.38 325.26 161.75 C 326.42 158.54 327.14 154.86 328.96 151.94 C 332.93 150.81 337.02 150.09 340.97 148.85 C 349.41 147.61 357.47 144.55 364.18 139.22 C 368.26 136.41 370.59 132.46 375.00 130.90 C 378.96 129.43 383.03 128.23 387.05 126.88 Z" fill="#ffffff" />
<path d="M 1024.30 127.30 C 1029.16 126.82 1034.12 127.18 1039.00 127.09 C 1047.88 127.17 1056.77 126.90 1065.64 127.24 C 1064.10 132.47 1062.26 137.58 1060.60 142.77 C 1048.51 143.02 1036.30 142.99 1024.21 142.78 C 1024.09 137.64 1023.83 132.43 1024.30 127.30 Z" fill="#62a9ea" />
<path d="M 430.37 143.97 C 430.46 145.37 430.55 146.76 430.65 148.16 C 431.06 149.64 431.38 151.14 431.68 152.65 C 430.26 152.65 428.84 152.65 427.42 152.65 C 428.32 149.73 429.29 146.83 430.37 143.97 Z" fill="#ffffff" />
<path d="M 699.20 144.78 C 715.80 144.61 732.40 144.74 749.00 144.62 C 750.99 144.68 753.53 144.60 755.27 145.66 C 756.54 146.80 756.42 149.49 756.00 151.01 C 755.07 154.74 753.78 159.25 750.95 162.00 C 748.41 164.42 745.28 164.26 742.00 164.35 C 725.61 164.32 709.21 164.30 692.82 164.12 C 694.84 157.63 697.22 151.27 699.20 144.78 Z" fill="#1d1d1d" />
<path d="M 701.09 153.91 C 714.28 153.47 727.73 153.79 740.96 153.69 C 739.68 155.52 737.96 155.19 736.00 155.33 C 724.09 155.35 712.18 155.28 700.26 155.18 L 701.09 153.91 Z" fill="#ffffff" />
<path d="M 376.81 160.00 C 377.13 165.84 376.70 171.50 378.38 177.20 C 371.29 179.78 363.34 181.62 355.77 181.42 C 351.69 180.75 347.77 180.58 343.65 180.45 C 335.61 179.21 327.16 179.70 319.02 179.85 C 319.96 177.12 320.90 174.39 321.92 171.68 C 326.31 171.38 330.58 170.54 334.99 170.57 C 343.18 170.20 350.98 171.45 359.06 169.25 C 360.33 168.77 361.61 168.29 362.89 167.82 C 367.83 165.71 372.36 163.00 376.81 160.00 Z" fill="#ffffff" />
<path d="M 383.18 186.40 C 388.29 191.01 394.23 194.39 400.87 196.27 C 407.91 198.19 414.60 197.91 421.81 198.08 C 421.55 200.60 421.39 203.11 421.37 205.64 C 416.70 205.61 412.76 203.11 408.00 203.48 C 399.07 202.80 390.87 205.97 382.00 206.04 C 370.67 206.23 359.33 206.10 348.00 206.15 C 344.73 206.08 341.14 206.26 338.13 204.87 C 337.11 204.52 336.08 204.16 335.06 203.81 C 331.42 202.39 327.72 201.13 323.93 200.14 C 318.55 199.06 314.02 197.07 308.68 197.51 C 310.11 196.75 311.89 196.15 313.00 194.96 C 314.18 193.21 315.01 191.22 315.95 189.34 C 320.27 189.48 324.74 190.15 328.94 191.19 C 329.98 191.37 331.02 191.55 332.06 191.74 C 333.35 192.30 334.71 192.57 336.09 192.84 C 338.71 193.71 341.38 194.34 343.95 195.37 C 351.63 196.11 358.93 195.98 366.22 193.21 C 367.86 192.52 369.50 191.88 371.17 191.28 C 372.40 190.78 373.64 190.29 374.87 189.79 C 376.30 189.29 377.72 188.79 379.12 188.23 C 380.49 187.65 381.83 187.01 383.18 186.40 Z" fill="#ffffff" />
<path d="M 266.85 215.07 C 312.56 215.13 358.30 215.18 404.01 215.12 C 405.52 215.20 407.63 215.06 408.81 216.16 C 409.46 217.44 408.74 219.18 408.41 220.49 C 405.48 229.22 402.43 237.91 399.57 246.66 C 388.81 250.20 378.08 254.02 367.19 257.16 C 368.64 251.94 371.71 246.74 371.99 241.33 C 361.70 241.33 351.40 241.41 341.11 241.31 C 331.90 267.48 323.30 293.88 314.15 320.08 C 304.27 320.01 294.39 320.10 284.51 320.03 C 293.20 293.77 302.46 267.66 311.06 241.38 C 296.63 241.39 282.20 241.38 267.77 241.36 C 267.35 232.62 266.74 223.82 266.85 215.07 Z" fill="#7fc9ff" />
<path d="M 424.99 215.15 C 459.32 215.09 493.68 215.15 528.00 215.18 C 531.46 215.25 535.09 214.89 538.50 215.48 C 540.67 216.95 539.30 218.99 538.87 220.99 C 535.91 229.59 533.09 238.23 530.07 246.81 C 519.35 250.09 508.81 254.05 498.03 257.08 C 499.57 251.84 501.74 246.89 502.94 241.57 C 483.65 241.10 464.30 241.53 444.99 241.34 C 443.40 241.38 440.78 241.25 440.05 243.05 C 438.25 247.42 436.96 252.03 435.41 256.49 C 451.63 256.49 467.85 256.55 484.07 256.46 C 482.15 263.67 479.40 270.70 477.01 277.77 C 463.36 277.73 449.71 277.72 436.06 277.78 C 435.69 271.53 435.71 265.26 435.27 259.01 C 433.76 260.32 433.50 262.09 432.82 263.89 C 429.70 273.41 426.26 282.83 423.25 292.39 C 427.23 293.04 430.98 292.70 435.00 292.76 C 461.15 292.78 487.30 292.72 513.45 292.79 C 510.52 301.92 507.34 311.00 504.17 320.06 C 465.79 319.91 427.37 320.06 388.99 319.98 C 387.44 319.88 385.37 319.98 385.22 317.94 C 385.45 315.29 386.63 312.66 387.45 310.13 C 397.68 280.11 407.87 250.02 418.09 220.00 C 419.31 216.36 421.14 215.13 424.99 215.15 Z" fill="#7fc9ff" />
<path d="M 596.00 215.18 C 619.33 215.17 642.67 215.19 666.00 215.17 C 668.81 215.20 671.75 214.97 674.52 215.47 C 676.68 216.77 675.17 219.01 674.82 220.90 C 671.88 229.53 669.03 238.20 666.01 246.80 C 655.24 250.15 644.63 254.01 633.81 257.19 C 635.40 251.92 637.49 246.83 638.99 241.53 C 627.68 241.05 616.32 241.45 605.00 241.32 C 598.02 241.44 590.97 241.06 584.01 241.57 C 578.77 241.94 573.71 244.39 570.81 248.87 C 567.28 254.03 565.62 260.63 563.50 266.53 C 561.68 272.14 559.09 278.12 558.55 283.99 C 558.27 286.53 558.92 289.36 561.15 290.85 C 564.04 292.58 567.71 292.76 571.00 292.81 C 596.96 292.76 622.93 292.72 648.89 292.80 C 645.83 301.85 642.61 310.86 639.67 319.95 C 613.46 320.16 587.22 319.97 561.00 320.04 C 553.15 320.00 544.17 319.57 537.07 315.89 C 531.62 313.22 527.79 308.01 526.78 302.03 C 524.98 292.29 528.58 282.01 531.73 272.91 C 536.34 259.96 539.14 247.74 547.61 236.58 C 554.30 226.95 564.38 220.68 575.53 217.45 C 582.25 215.65 589.07 215.21 596.00 215.18 Z" fill="#7fc9ff" />
<path d="M 688.33 215.11 C 698.27 215.02 708.22 214.99 718.16 215.01 C 713.84 228.03 709.41 241.02 704.94 254.00 C 728.23 254.00 751.52 254.00 774.81 254.00 C 779.18 241.02 783.57 228.04 788.03 215.09 C 798.05 215.05 808.07 214.98 818.10 215.00 C 806.01 249.98 794.32 285.14 782.19 320.09 C 772.22 319.97 762.25 320.14 752.29 320.00 C 756.90 306.66 761.38 293.26 766.03 279.93 C 746.01 279.88 725.99 279.84 705.98 279.85 C 705.41 272.10 705.15 264.34 704.75 256.58 C 703.63 257.80 703.09 259.19 702.60 260.74 C 696.05 280.50 689.07 300.12 682.60 319.91 C 672.67 320.22 662.70 320.00 652.76 320.03 C 664.47 285.02 676.63 250.13 688.33 215.11 Z" fill="#7fc9ff" />
<path d="M 1038.23 216.20 C 1039.12 215.76 1040.03 215.53 1040.97 215.50 C 1045.30 215.44 1049.23 214.90 1053.32 216.61 L 1053.45 217.68 L 1055.18 217.33 C 1056.17 219.53 1057.23 221.70 1058.43 223.79 C 1058.34 225.78 1058.28 227.72 1057.60 229.62 C 1053.97 240.06 1050.40 250.52 1046.86 260.99 C 1045.94 263.49 1044.90 266.15 1043.26 268.27 C 1042.07 269.07 1040.74 269.68 1039.48 270.36 C 1037.69 271.27 1035.95 270.97 1034.00 271.03 C 1026.67 270.91 1019.32 271.12 1011.99 270.94 C 1008.68 270.94 1005.37 268.65 1002.54 267.09 C 1000.78 268.79 998.65 269.78 996.53 270.93 C 979.48 271.00 962.03 271.05 944.98 271.01 C 941.80 270.73 937.51 268.86 936.39 265.59 C 934.54 262.58 934.57 259.17 935.65 255.89 C 938.81 246.60 941.94 237.30 945.10 228.00 C 946.04 225.52 947.06 222.82 948.74 220.74 C 950.26 219.76 951.92 219.00 953.48 218.08 C 957.95 218.27 963.25 217.25 967.48 218.64 C 968.74 219.32 970.07 219.94 971.27 220.73 C 972.07 221.93 972.67 223.26 973.36 224.52 C 974.62 226.84 974.00 229.75 973.16 232.10 C 971.75 236.04 970.43 240.01 968.97 243.92 C 972.83 243.85 976.69 243.86 980.55 243.87 C 980.37 240.92 980.09 237.90 980.30 234.94 C 980.77 232.85 982.09 230.90 983.05 229.00 C 984.81 228.39 986.73 227.78 988.32 226.78 C 989.59 224.87 990.29 222.52 991.73 220.75 C 993.25 219.76 994.92 218.99 996.50 218.09 C 1000.26 218.04 1004.11 217.76 1007.85 218.17 C 1009.82 218.87 1011.68 220.01 1013.46 221.10 C 1014.29 223.42 1015.63 225.19 1015.73 227.70 C 1020.62 226.28 1025.37 226.70 1030.38 226.65 C 1031.24 223.95 1032.14 221.19 1033.86 218.90 C 1034.98 217.65 1036.77 216.97 1038.23 216.20 Z" fill="#1d1d1d" />
<path d="M 270.24 217.29 C 271.48 217.15 272.74 217.07 274.00 217.05 C 313.66 217.08 353.33 217.05 393.00 217.06 C 397.55 217.05 402.09 216.97 406.64 217.22 C 404.59 224.19 402.05 231.01 399.89 237.95 C 399.31 239.54 398.88 241.46 397.77 242.77 C 396.22 244.03 393.94 244.49 392.07 245.17 C 386.04 246.98 380.17 249.41 374.06 250.90 C 374.69 246.44 376.74 242.85 375.86 238.18 C 369.27 237.71 362.62 238.03 356.00 237.94 C 350.40 238.00 344.85 237.73 339.26 238.20 C 335.70 247.80 332.68 257.61 329.43 267.33 C 328.98 268.41 328.66 269.90 327.73 270.67 C 322.61 271.48 317.31 270.36 312.10 271.33 C 309.83 271.74 307.66 271.89 305.35 271.84 C 307.81 263.59 310.77 255.50 313.41 247.32 C 314.38 244.26 314.07 241.31 313.82 238.18 C 299.64 237.53 285.40 238.30 271.21 237.79 C 270.87 230.89 271.45 224.15 270.24 217.29 Z" fill="#aadbff" />
<path d="M 425.32 217.38 C 428.45 216.77 431.82 217.11 435.00 217.05 C 464.67 217.07 494.33 217.05 524.00 217.06 C 528.32 217.04 532.64 216.98 536.96 217.23 C 536.54 221.27 534.62 224.51 533.38 228.31 C 531.77 233.11 530.20 237.92 528.60 242.72 C 520.74 245.77 512.51 248.42 504.42 250.82 C 505.90 246.45 506.45 242.81 505.82 238.18 C 503.88 238.07 501.94 237.95 500.00 237.92 C 483.00 237.95 466.00 237.95 449.00 237.93 C 445.80 237.96 442.41 237.69 439.27 238.32 C 437.41 240.53 436.94 244.24 435.82 246.93 C 434.23 250.66 434.41 254.74 432.36 258.21 C 430.79 260.76 430.64 264.47 428.73 266.67 C 421.36 267.25 413.77 266.95 406.37 266.76 C 408.72 259.12 411.20 251.50 414.13 244.05 C 416.66 236.85 418.88 229.53 421.43 222.34 C 422.33 220.33 422.96 218.05 425.32 217.38 Z" fill="#aadbff" />
<path d="M 590.00 216.96 C 617.61 217.30 645.28 216.77 672.89 217.24 C 670.47 225.83 667.29 234.21 664.60 242.73 C 656.74 245.77 648.51 248.42 640.42 250.82 C 641.90 246.45 642.45 242.81 641.82 238.18 C 639.55 238.04 637.28 237.92 635.00 237.92 C 617.69 237.98 600.31 237.91 583.00 237.95 C 576.83 237.91 570.99 241.71 568.00 247.01 C 565.38 251.97 563.81 257.57 561.72 262.78 C 554.29 263.05 546.74 263.07 539.32 262.75 C 543.29 250.45 548.78 239.27 558.24 230.24 C 567.11 222.62 578.36 217.98 590.00 216.96 Z" fill="#aadbff" />
<path d="M 693.04 217.21 C 699.97 216.89 707.02 217.00 713.96 217.23 C 713.41 221.27 711.82 224.84 710.59 228.68 C 708.70 234.44 706.76 240.19 704.81 245.93 C 703.89 248.65 704.11 251.20 703.89 254.02 C 704.01 255.72 702.61 255.79 701.49 256.62 C 700.85 257.99 700.23 259.38 699.63 260.76 C 692.25 261.07 684.74 261.04 677.37 260.76 C 681.56 247.33 686.28 234.07 690.57 220.67 C 691.08 219.62 691.48 217.05 693.04 217.21 Z" fill="#aadbff" />
<path d="M 791.49 217.35 C 798.89 216.73 806.52 217.07 813.96 217.23 C 813.24 221.91 811.31 226.44 809.79 230.91 C 805.98 240.37 803.42 250.29 799.72 259.78 C 787.49 260.16 775.23 259.83 763.00 259.94 C 757.78 260.07 752.38 259.52 747.32 260.43 C 742.18 261.35 737.37 260.83 732.00 260.94 C 724.39 260.87 716.77 261.12 709.17 260.79 C 709.17 259.26 709.17 257.74 709.17 256.21 C 727.43 255.86 745.73 256.16 764.00 256.06 C 768.53 255.93 773.27 256.45 777.74 255.68 C 779.41 253.58 780.14 250.55 781.14 248.06 C 784.67 237.86 787.83 227.49 791.49 217.35 Z" fill="#aadbff" />
<path d="M 867.00 218.04 C 875.34 218.10 883.67 217.94 892.01 218.00 C 894.54 217.88 897.10 219.52 899.17 220.83 C 900.41 222.65 901.27 224.76 902.28 226.72 C 908.18 226.59 914.11 226.53 920.01 226.71 C 923.42 226.79 926.13 228.31 929.01 229.95 C 931.75 231.49 933.21 235.23 934.32 238.01 C 935.35 244.44 933.39 250.11 930.80 255.87 C 929.28 259.01 928.02 262.01 925.48 264.50 C 923.42 266.81 920.16 268.04 917.42 269.44 C 913.47 271.59 908.39 270.89 904.00 271.00 C 897.58 270.73 892.05 272.08 886.12 268.94 C 884.58 269.72 882.81 271.13 881.03 271.01 C 872.03 271.05 863.01 270.99 854.00 271.03 C 851.39 270.99 848.41 271.03 845.97 270.03 C 841.99 268.25 838.31 266.82 836.43 262.55 C 833.81 258.31 833.98 253.63 834.73 248.87 C 836.64 241.79 839.28 234.49 843.29 228.32 C 846.49 223.69 851.12 221.53 856.13 219.39 C 859.56 218.01 863.36 218.07 867.00 218.04 Z" fill="#1d1d1d" />
<path d="M 1045.74 224.51 C 1048.69 224.47 1051.65 224.44 1054.61 224.44 C 1050.43 236.99 1046.02 249.46 1041.83 262.00 C 1033.89 261.89 1025.91 262.22 1017.98 261.84 C 1014.69 261.66 1012.06 259.46 1012.24 256.00 C 1012.65 252.09 1014.13 248.21 1015.56 244.57 C 1017.32 240.40 1020.43 237.10 1024.98 236.16 C 1030.49 235.24 1036.29 235.78 1041.87 235.69 C 1043.27 232.00 1044.48 228.25 1045.74 224.51 Z" fill="#7fc9ff" />
<path d="M 874.00 227.04 C 882.03 227.17 890.07 226.82 898.09 227.12 C 897.43 230.80 896.09 234.20 894.83 237.70 C 891.16 238.84 887.51 240.02 883.86 241.22 C 884.58 239.42 885.22 237.60 885.84 235.76 C 879.57 235.95 873.21 235.44 866.97 236.01 C 862.37 236.40 861.42 242.52 860.06 246.00 C 859.50 248.09 857.65 252.29 861.10 252.73 C 870.42 253.12 879.82 252.71 889.15 252.91 C 888.15 255.95 887.11 258.98 886.05 262.00 C 877.03 262.00 868.01 262.04 859.00 261.99 C 855.51 261.88 851.77 261.51 849.49 258.53 C 847.35 254.99 848.67 250.61 849.86 246.99 C 851.90 240.96 853.73 234.07 859.34 230.33 C 863.83 227.22 868.72 227.01 874.00 227.04 Z" fill="#7fc9ff" />
<path d="M 960.22 227.10 C 963.52 226.85 966.86 227.04 970.16 227.01 C 967.27 235.53 964.30 244.03 961.35 252.53 C 970.81 253.33 980.45 252.63 989.95 252.89 C 988.86 255.91 987.81 258.95 986.79 262.00 C 974.21 261.91 961.59 262.24 949.02 261.82 C 949.17 259.80 949.52 257.98 950.25 256.09 C 953.66 246.47 956.66 236.64 960.22 227.10 Z" fill="#7fc9ff" />
<path d="M 1003.23 227.12 C 1006.04 226.86 1008.90 227.02 1011.73 227.01 C 1010.82 229.91 1009.86 232.79 1008.96 235.69 C 1011.55 235.64 1014.13 235.56 1016.72 235.47 C 1015.93 237.75 1015.11 240.02 1014.22 242.26 C 1011.67 242.23 1009.13 242.24 1006.59 242.30 C 1004.41 248.89 1002.16 255.44 999.92 262.00 C 997.03 262.01 994.15 262.00 991.26 261.95 C 993.49 255.39 995.76 248.84 997.93 242.25 C 996.80 242.25 995.67 242.25 994.54 242.24 C 994.43 240.05 994.35 237.85 994.29 235.66 C 996.30 235.63 998.31 235.59 1000.33 235.53 C 1001.24 232.73 1002.01 229.81 1003.23 227.12 Z" fill="#7fc9ff" />
<path d="M 907.99 235.81 C 912.64 235.48 917.34 235.61 922.00 235.67 C 924.63 235.83 927.98 235.94 929.63 238.35 C 931.39 240.81 930.15 244.48 929.38 247.12 C 927.75 252.06 926.02 257.55 921.08 260.14 C 916.64 262.65 911.93 261.87 907.00 262.01 C 903.47 261.88 899.35 262.43 896.01 261.18 C 893.83 260.36 892.66 258.30 892.78 256.00 C 893.11 251.98 894.80 248.00 896.32 244.29 C 898.27 239.51 902.84 236.17 907.99 235.81 Z" fill="#7fc9ff" />
<path d="M 906.26 243.27 C 910.32 241.88 915.72 242.46 920.01 242.78 C 922.13 243.19 920.84 246.11 920.60 247.50 C 919.80 249.70 918.91 253.86 916.04 254.12 C 911.76 254.31 907.22 254.55 902.98 253.93 L 902.31 253.09 C 902.80 249.91 903.77 245.50 906.26 243.27 Z" fill="#1d1d1d" />
<path d="M 1026.02 242.99 C 1030.33 242.08 1035.08 242.74 1039.48 242.69 C 1037.47 248.79 1035.55 254.99 1033.18 260.96 C 1033.02 258.67 1032.94 256.38 1032.89 254.09 C 1029.50 253.98 1025.49 254.76 1022.27 253.72 C 1021.68 253.14 1021.61 252.23 1022.07 250.99 C 1022.76 248.31 1023.71 244.72 1026.02 242.99 Z" fill="#1d1d1d" />
<path d="M 256.45 248.30 C 258.01 248.27 259.19 248.92 260.51 249.64 C 262.23 250.56 264.42 250.44 266.36 250.61 C 266.93 260.44 266.24 270.27 266.65 280.09 C 267.61 283.42 268.69 286.52 271.10 289.10 C 273.06 291.58 276.02 293.46 277.70 296.06 C 275.90 302.80 273.22 309.34 271.14 316.01 C 270.57 317.72 270.65 319.43 270.61 321.20 C 271.49 322.74 272.23 324.36 273.08 325.91 C 274.66 327.31 276.87 328.26 278.86 328.95 C 286.63 329.39 294.50 328.65 302.26 329.35 C 299.71 331.95 296.64 333.41 293.53 335.47 C 287.81 339.19 281.90 342.46 276.38 346.50 C 275.71 346.57 275.03 346.64 274.35 346.72 C 274.78 341.42 274.66 337.03 273.27 331.87 C 272.04 329.12 270.65 326.45 269.27 323.78 C 265.46 317.57 261.55 311.38 258.12 304.95 C 257.46 303.61 256.80 302.28 256.17 300.93 C 255.70 299.30 255.23 297.68 254.71 296.08 C 253.66 286.77 255.66 278.19 256.46 268.99 C 256.68 262.09 256.66 255.19 256.45 248.30 Z" fill="#ffffff" />
<path d="M 485.23 250.23 L 485.77 250.24 L 485.76 250.78 L 485.22 250.77 L 485.23 250.23 Z" fill="#62a9ea" />
<path d="M 588.00 250.32 C 599.15 250.38 610.30 250.25 621.45 250.39 C 620.26 253.26 619.12 256.50 620.64 259.48 C 621.33 260.74 621.94 262.07 622.73 263.27 C 623.93 264.06 625.26 264.67 626.52 265.36 C 628.56 266.49 631.37 266.08 633.52 265.47 C 642.17 262.67 650.78 259.68 659.48 257.01 C 656.20 266.85 652.59 276.61 649.55 286.52 C 647.63 285.45 645.31 283.66 643.04 283.76 C 622.36 283.76 601.68 283.75 581.00 283.76 C 574.97 283.74 568.97 283.92 562.94 283.61 C 564.23 276.60 567.23 269.91 569.35 263.11 C 570.73 259.13 572.29 253.42 576.42 251.46 C 580.05 250.30 584.22 250.36 588.00 250.32 Z" fill="#ffffff" />
<path d="M 278.09 250.39 C 281.45 250.66 285.94 249.73 289.01 250.95 C 290.17 253.97 291.25 256.81 290.11 260.03 C 288.07 266.36 285.92 272.67 283.60 278.90 C 283.55 277.22 283.41 275.62 282.88 274.01 C 282.57 272.65 282.27 271.30 281.89 269.96 C 281.12 265.23 280.35 260.46 279.10 255.82 C 278.56 254.05 278.33 252.23 278.09 250.39 Z" fill="#ffffff" />
<path d="M 342.53 251.35 C 343.69 251.54 344.84 251.74 345.99 251.95 C 348.58 252.50 351.17 252.57 353.81 252.50 C 353.53 254.24 353.16 256.16 353.38 257.93 C 354.05 259.60 354.90 261.20 355.54 262.90 C 358.86 264.97 361.74 266.75 365.85 265.76 C 371.43 264.22 376.78 261.95 382.43 260.61 C 381.46 263.23 380.55 265.78 378.80 268.01 C 373.37 275.23 368.65 283.12 362.93 290.11 C 360.49 284.20 355.58 280.64 350.09 277.77 C 348.41 277.16 346.76 276.49 345.12 275.78 C 341.83 274.62 338.58 273.36 335.26 272.29 C 337.54 265.28 339.73 258.16 342.53 251.35 Z" fill="#ffffff" />
<path d="M 439.29 258.30 C 444.48 257.76 449.78 258.18 455.00 258.06 C 463.63 258.16 472.29 257.84 480.92 258.24 C 480.20 260.45 479.40 262.62 478.56 264.77 C 474.05 265.10 469.76 264.62 465.32 265.43 C 460.48 266.31 455.89 265.86 451.00 265.94 C 447.06 265.98 443.13 265.99 439.19 265.79 C 439.07 263.25 438.88 260.83 439.29 258.30 Z" fill="#aadbff" />
<path d="M 522.43 257.29 C 519.14 266.80 515.53 276.29 513.13 286.07 C 511.84 285.29 510.54 284.52 509.24 283.74 C 499.06 283.82 488.87 283.64 478.69 283.82 C 482.77 277.34 484.27 269.27 487.13 262.15 L 487.27 263.67 C 489.39 264.47 491.69 265.98 493.98 265.86 C 496.31 265.98 498.36 265.22 500.54 264.51 C 507.82 262.06 515.14 259.71 522.43 257.29 Z" fill="#ffffff" />
<path d="M 330.81 285.08 C 331.91 285.28 333.01 285.50 334.11 285.73 L 335.03 286.07 C 335.98 286.48 336.93 286.90 337.87 287.35 C 338.62 287.44 339.37 287.54 340.12 287.63 C 342.83 289.27 344.70 291.32 346.56 293.85 C 346.32 297.09 345.89 300.10 343.43 302.45 C 338.01 308.03 331.89 312.87 326.51 318.51 C 324.71 320.11 323.15 322.60 320.57 322.76 C 320.52 319.68 319.78 316.85 320.95 313.98 C 323.96 305.30 326.89 296.60 329.85 287.91 C 330.17 286.96 330.49 286.02 330.81 285.08 Z" fill="#ffffff" />
</svg>